<?xml version="1.0" standalone="no"?>
<!DOCTYPE svg PUBLIC "-//W3C//DTD SVG 20010904//EN"
 "http://www.w3.org/TR/2001/REC-SVG-20010904/DTD/svg10.dtd">
<svg version="1.0" xmlns="http://www.w3.org/2000/svg"
 width="700.000000pt" height="700.000000pt" viewBox="0 0 700.000000 700.000000"
 preserveAspectRatio="xMidYMid meet">
<metadata>
Created by potrace 1.14, written by Peter Selinger 2001-2017
</metadata>
<g transform="translate(0.000000,700.000000) scale(0.100000,-0.100000)"
fill="#000000" stroke="none">
<path d="M4455 6986 c-68 -21 -108 -47 -161 -102 -40 -41 -56 -68 -73 -121
l-22 -68 3 -2135 3 -2135 26 -56 c49 -105 131 -174 236 -198 181 -43 357 56
417 233 15 46 16 223 14 2191 l-3 2140 -33 68 c-38 77 -104 140 -179 170 -58
23 -173 30 -228 13z"/>
<path d="M3105 6978 c-60 -8 -242 -36 -280 -44 -11 -3 -42 -9 -70 -14 -149
-30 -469 -130 -592 -186 -28 -13 -54 -24 -58 -24 -15 0 -310 -152 -403 -208
-90 -55 -228 -145 -272 -179 -185 -143 -290 -234 -411 -356 -508 -512 -851
-1175 -969 -1879 -22 -134 -25 -153 -37 -288 -15 -164 -8 -589 12 -711 2 -13
6 -46 10 -74 11 -92 16 -119 47 -260 162 -753 586 -1453 1173 -1939 98 -81 97
-80 178 -140 424 -313 942 -532 1477 -625 125 -22 159 -26 295 -38 117 -10
485 -10 600 0 493 45 1004 203 1414 439 46 26 86 48 88 48 2 0 9 5 16 10 7 6
64 44 127 86 239 158 471 360 660 573 36 41 70 79 75 85 6 6 40 49 76 96 347
449 581 972 683 1530 8 47 18 110 21 140 4 30 8 61 10 68 26 79 26 710 0 837
-2 11 -7 42 -10 69 -3 27 -8 52 -9 55 -2 3 -7 28 -10 55 -36 266 -177 692
-326 980 -117 229 -276 473 -365 562 -259 260 -718 152 -885 -208 -44 -97 -59
-176 -56 -308 4 -125 6 -143 37 -240 27 -85 51 -136 115 -247 62 -108 120
-229 159 -333 15 -41 31 -84 35 -95 27 -69 81 -300 95 -405 23 -180 23 -467
-1 -620 -6 -39 -23 -134 -30 -165 -6 -32 -15 -69 -18 -80 -58 -213 -124 -380
-216 -546 -255 -459 -679 -831 -1155 -1014 -38 -14 -83 -32 -100 -38 -16 -6
-34 -13 -40 -14 -5 -1 -61 -16 -122 -33 -62 -16 -141 -34 -175 -39 -35 -5 -81
-12 -103 -16 -113 -17 -384 -23 -495 -11 -102 10 -171 21 -280 42 -98 19 -252
68 -380 119 -537 217 -986 654 -1221 1187 -80 181 -151 435 -174 618 -3 25 -8
65 -11 90 -7 54 -8 373 -1 415 3 17 8 55 12 85 78 648 457 1252 1015 1615 121
79 180 112 308 169 172 78 283 111 597 181 250 56 455 206 558 410 113 224 70
503 -102 676 -132 133 -268 169 -516 137z"/>
<path d="M3420 4949 c-108 -29 -191 -99 -239 -199 l-26 -55 0 -1135 0 -1135
33 -67 c36 -74 95 -132 170 -169 39 -20 63 -24 142 -24 86 0 101 3 154 30 82
41 148 118 175 203 22 67 22 69 19 1182 l-3 1115 -27 57 c-42 91 -144 177
-228 195 -43 9 -139 10 -170 2z"/>
<path d="M2331 3770 c-55 -20 -129 -75 -163 -121 -10 -13 -29 -51 -43 -84
l-25 -60 3 -545 2 -545 24 -48 c35 -70 101 -139 168 -172 52 -27 67 -30 153
-30 84 0 101 4 150 28 75 38 133 98 167 171 l28 61 0 555 0 555 -32 60 c-37
72 -105 138 -171 167 -70 30 -191 34 -261 8z"/>
</g>
</svg>
