<svg width="36" height="36" viewBox="0 0 36 36" fill="none" xmlns="http://www.w3.org/2000/svg">
<path d="M18 36C27.9411 36 36 27.9411 36 18C36 8.05887 27.9411 0 18 0C8.05887 0 0 8.05887 0 18C0 27.9411 8.05887 36 18 36Z" fill="#FFCC4D"/>
<path d="M25.485 27.379C25.44 27.2 24.317 23 18 23C11.682 23 10.56 27.2 10.515 27.379C10.46 27.596 10.558 27.821 10.752 27.933C10.947 28.044 11.191 28.011 11.352 27.856C11.371 27.837 13.306 26 18 26C22.694 26 24.63 27.837 24.648 27.855C24.744 27.95 24.872 28 25 28C25.084 28 25.169 27.979 25.246 27.936C25.442 27.824 25.54 27.597 25.485 27.379Z" fill="#664500"/>
<path d="M12 17C13.3807 17 14.5 15.433 14.5 13.5C14.5 11.567 13.3807 10 12 10C10.6193 10 9.5 11.567 9.5 13.5C9.5 15.433 10.6193 17 12 17Z" fill="#664500"/>
<path d="M24 17C25.3807 17 26.5 15.433 26.5 13.5C26.5 11.567 25.3807 10 24 10C22.6193 10 21.5 11.567 21.5 13.5C21.5 15.433 22.6193 17 24 17Z" fill="#664500"/>
</svg>
