<svg width="24" height="24" viewBox="0 0 24 24" fill="none" xmlns="http://www.w3.org/2000/svg">
<g clip-path="url(#clip0_287_4646)">
<path d="M20.317 4.15557C18.7873 3.45369 17.147 2.93657 15.4319 2.6404C15.4007 2.63469 15.3694 2.64897 15.3533 2.67754C15.1424 3.05275 14.9088 3.54225 14.7451 3.927C12.9004 3.65083 11.0652 3.65083 9.2583 3.927C9.09465 3.5337 8.8525 3.05275 8.64055 2.67754C8.6245 2.64992 8.5933 2.63564 8.56205 2.6404C6.8479 2.93563 5.20755 3.45274 3.67693 4.15557C3.66368 4.16128 3.65232 4.17082 3.64479 4.18319C0.53339 8.83154 -0.31895 13.3656 0.0991801 17.8435C0.101072 17.8654 0.11337 17.8864 0.130398 17.8997C2.18321 19.4073 4.17171 20.3225 6.1233 20.9291C6.1545 20.9386 6.1876 20.9272 6.2075 20.9015C6.66915 20.2711 7.08065 19.6063 7.4335 18.9073C7.4543 18.8663 7.4344 18.8178 7.39185 18.8016C6.73915 18.554 6.1176 18.2521 5.51975 17.9093C5.47245 17.8816 5.46865 17.814 5.51215 17.7816C5.63795 17.6873 5.7638 17.5892 5.88395 17.4902C5.9057 17.4721 5.936 17.4683 5.96155 17.4797C9.8893 19.273 14.1415 19.273 18.0229 17.4797C18.0485 17.4673 18.0788 17.4712 18.1015 17.4893C18.2216 17.5883 18.3474 17.6873 18.4742 17.7816C18.5177 17.814 18.5149 17.8816 18.4676 17.9093C17.8697 18.2587 17.2482 18.554 16.5945 18.8006C16.5519 18.8168 16.5331 18.8663 16.5539 18.9073C16.9143 19.6053 17.3258 20.2701 17.7789 20.9005C17.7978 20.9272 17.8319 20.9386 17.8631 20.9291C19.8242 20.3225 21.8126 19.4073 23.8654 17.8997C23.8834 17.8864 23.8948 17.8664 23.8967 17.8445C24.3971 12.6675 23.0585 8.17064 20.3482 4.18414C20.3416 4.17082 20.3302 4.16128 20.317 4.15557ZM8.02 15.117C6.8375 15.117 5.86315 14.0313 5.86315 12.698C5.86315 11.3648 6.8186 10.2791 8.02 10.2791C9.23085 10.2791 10.1958 11.3743 10.1769 12.698C10.1769 14.0313 9.2214 15.117 8.02 15.117ZM15.9948 15.117C14.8123 15.117 13.8379 14.0313 13.8379 12.698C13.8379 11.3648 14.7933 10.2791 15.9948 10.2791C17.2056 10.2791 18.1705 11.3743 18.1516 12.698C18.1516 14.0313 17.2056 15.117 15.9948 15.117Z" fill="white"/>
</g>
<defs>
<clipPath id="clip0_287_4646">
<rect width="24" height="24" fill="white"/>
</clipPath>
</defs>
</svg>
