<svg width="24" height="24" viewBox="0 0 24 24" fill="none" xmlns="http://www.w3.org/2000/svg">
<g clip-path="url(#clip0_287_4666)">
<path fill-rule="evenodd" clip-rule="evenodd" d="M24 12C24 18.6274 18.6274 24 12 24C5.3726 24 0 18.6274 0 12C0 5.3726 5.3726 0 12 0C18.6274 0 24 5.3726 24 12ZM18.2456 10.2456C19.214 10.2456 20 11.0315 20 12C20 12.7157 19.5649 13.3333 18.9895 13.614C19.0176 13.7825 19.0316 13.9508 19.0316 14.1333C19.0316 16.828 15.9018 19.0035 12.0281 19.0035C8.1544 19.0035 5.02455 16.828 5.02455 14.1333C5.02455 13.9508 5.0386 13.7684 5.06665 13.6C4.44913 13.3193 4.02808 12.7157 4.02808 12C4.02808 11.0315 4.81404 10.2456 5.78245 10.2456C6.2456 10.2456 6.6807 10.4421 6.9895 10.7368C8.1965 9.8526 9.86665 9.30525 11.7333 9.2491L12.6175 5.06665C12.6456 4.98243 12.6878 4.91226 12.7579 4.87015C12.8281 4.82805 12.9123 4.81401 12.9965 4.82804L15.9017 5.4456C16.0982 5.02455 16.5193 4.74383 17.0105 4.74383C17.6982 4.74383 18.2596 5.30525 18.2596 5.99295C18.2596 6.6807 17.6982 7.2421 17.0105 7.2421C16.3368 7.2421 15.7895 6.70875 15.7614 6.0491L13.1649 5.50175L12.3649 9.2491C14.1895 9.31925 15.8456 9.8807 17.0386 10.7368C17.3474 10.4281 17.7684 10.2456 18.2456 10.2456ZM9.24915 12C8.5614 12 8 12.5614 8 13.2491C8 13.9368 8.5614 14.4982 9.24915 14.4982C9.93685 14.4982 10.4983 13.9368 10.4983 13.2491C10.4983 12.5614 9.93685 12 9.24915 12ZM12.014 17.4597C12.4912 17.4597 14.1193 17.4035 14.9754 16.5473C15.1017 16.421 15.1017 16.2245 15.0035 16.0842C14.8772 15.9578 14.6666 15.9578 14.5403 16.0842C13.993 16.6175 12.8562 16.814 12.0281 16.814C11.2 16.814 10.0492 16.6175 9.5158 16.0842C9.3895 15.9578 9.17895 15.9578 9.05265 16.0842C8.9263 16.2105 8.9263 16.421 9.05265 16.5473C9.89475 17.3894 11.5368 17.4597 12.014 17.4597ZM13.5017 13.2491C13.5017 13.9368 14.0632 14.4982 14.7509 14.4982C15.4386 14.4982 16 13.9368 16 13.2491C16 12.5614 15.4386 12 14.7509 12C14.0632 12 13.5017 12.5614 13.5017 13.2491Z" fill="white"/>
</g>
<defs>
<clipPath id="clip0_287_4666">
<rect width="24" height="24" fill="white"/>
</clipPath>
</defs>
</svg>
