<svg width="24" height="24" viewBox="0 0 24 24" fill="none" xmlns="http://www.w3.org/2000/svg">
<g clip-path="url(#clip0_287_4668)">
<mask id="mask0_287_4668" style="mask-type:luminance" maskUnits="userSpaceOnUse" x="0" y="0" width="24" height="24">
<path d="M24 0H0V24H24V0Z" fill="white"/>
</mask>
<g mask="url(#mask0_287_4668)">
<path d="M12 24C18.6274 24 24 18.6274 24 12C24 5.3726 18.6274 0 12 0C5.3726 0 0 5.3726 0 12C0 18.6274 5.3726 24 12 24Z" fill="#FF4500"/>
<path d="M19.9998 12C19.9998 11.0316 19.2138 10.2456 18.2454 10.2456C17.7682 10.2456 17.3471 10.4281 17.0384 10.7369C15.8454 9.88075 14.1892 9.31935 12.3647 9.24915L13.1647 5.5018L15.7612 6.04915C15.7892 6.7088 16.3366 7.24215 17.0103 7.24215C17.698 7.24215 18.2594 6.68075 18.2594 5.993C18.2594 5.3053 17.698 4.7439 17.0103 4.7439C16.5191 4.7439 16.098 5.0246 15.9015 5.44565L12.9963 4.82811C12.912 4.81407 12.8278 4.82811 12.7577 4.87021C12.6875 4.91232 12.6454 4.9825 12.6173 5.0667L11.7331 9.24915C9.86642 9.3053 8.19627 9.85265 6.98922 10.7369C6.68047 10.4421 6.24537 10.2456 5.78222 10.2456C4.8138 10.2456 4.02783 11.0316 4.02783 12C4.02783 12.7158 4.44889 13.3193 5.06642 13.6C5.03837 13.7684 5.02432 13.9509 5.02432 14.1334C5.02432 16.8281 8.15417 19.0035 12.0278 19.0035C15.9015 19.0035 19.0313 16.8281 19.0313 14.1334C19.0313 13.9509 19.0173 13.7825 18.9892 13.6141C19.5647 13.3333 19.9998 12.7158 19.9998 12ZM7.99977 13.2491C7.99977 12.5614 8.56117 12 9.24887 12C9.93662 12 10.498 12.5614 10.498 13.2491C10.498 13.9369 9.93662 14.4983 9.24887 14.4983C8.56117 14.4983 7.99977 13.9369 7.99977 13.2491ZM14.9752 16.5474C14.1191 17.4035 12.491 17.4597 12.0138 17.4597C11.5366 17.4597 9.89452 17.3895 9.05237 16.5474C8.92607 16.4211 8.92607 16.2105 9.05237 16.0842C9.17872 15.9579 9.38922 15.9579 9.51557 16.0842C10.0489 16.6176 11.1998 16.8141 12.0278 16.8141C12.8559 16.8141 13.9927 16.6176 14.5401 16.0842C14.6664 15.9579 14.877 15.9579 15.0033 16.0842C15.1015 16.2246 15.1015 16.4211 14.9752 16.5474ZM14.7506 14.4983C14.0629 14.4983 13.5015 13.9369 13.5015 13.2491C13.5015 12.5614 14.0629 12 14.7506 12C15.4384 12 15.9998 12.5614 15.9998 13.2491C15.9998 13.9369 15.4384 14.4983 14.7506 14.4983Z" fill="white"/>
</g>
</g>
<defs>
<clipPath id="clip0_287_4668">
<rect width="24" height="24" fill="white"/>
</clipPath>
</defs>
</svg>
