<svg width="120" height="120" viewBox="0 0 120 120" fill="none" xmlns="http://www.w3.org/2000/svg">
<path d="M93.927 23.9555C97.9016 19.7328 104.637 19.4879 108.103 24.137C114.418 32.6084 118.424 42.652 119.622 53.2751C121.215 67.399 117.742 81.6298 109.822 93.4323C101.903 105.235 90.0501 113.843 76.3763 117.722C62.7024 121.601 48.0955 120.5 35.1575 114.615C22.2196 108.731 11.791 98.4437 5.72955 85.5875C-0.331892 72.7313 -1.63251 58.1407 2.05941 44.4151C5.75133 30.6895 14.196 18.7203 25.889 10.6397C34.6838 4.56199 44.8865 0.981031 55.4222 0.174764C61.2043 -0.267721 65.4455 4.96978 64.8744 10.7406V10.7406C64.3034 16.5114 59.0935 20.5815 53.3787 21.5662C47.8358 22.5212 42.5231 24.6711 37.8279 27.9158C30.2274 33.1682 24.7384 40.9482 22.3386 49.8698C19.9389 58.7915 20.7843 68.2753 24.7242 76.6319C28.6641 84.9884 35.4427 91.6748 43.8524 95.5001C52.2621 99.3253 61.7566 100.041 70.6446 97.5192C79.5325 94.9976 87.2367 89.4026 92.3846 81.731C97.5325 74.0594 99.7898 64.8094 98.7543 55.6288C98.1146 49.9575 96.2439 44.5401 93.3213 39.7345C90.3081 34.7798 89.9524 28.1781 93.927 23.9555V23.9555Z" fill="#4685FF"/>
<rect x="36" y="55" width="12" height="28" rx="6" fill="#6B9DFF"/>
<rect x="72" width="12" height="83" rx="6" fill="#6B9DFF"/>
<rect x="54" y="35" width="12" height="48" rx="6" fill="#6B9DFF"/>
</svg>
