<svg width="335" height="319" viewBox="0 0 335 319" fill="none" xmlns="http://www.w3.org/2000/svg">
<circle cx="159" cy="159.5" r="159" fill="#C8DAFF"/>
<path d="M176.736 105.954C160.872 105.954 139.985 120.423 141.032 134.284C141.497 140.432 147.521 144.172 154.197 142.465C160.872 140.759 163.733 135.056 159.477 130.264C153.801 123.859 139.217 121.779 121.586 134.588C106.77 145.341 96.4425 162.287 93 179" stroke="#315DB3" stroke-width="2" stroke-linecap="round" stroke-linejoin="round"/>
<path d="M198.001 83.9415L186.864 104.467L177.323 66.4148L333.517 24L198.001 83.9415Z" fill="#315DB3" stroke="#315DB3" stroke-linejoin="round"/>
<path d="M211.206 94.1851L186.985 104.467L198.122 83.9417L211.206 94.1851Z" fill="#1C3566" stroke="#1C3566" stroke-linejoin="round"/>
<path d="M164.005 40.4362L333.4 24L177.323 66.4148L160.305 54.185C154.62 50.0954 157.034 41.1373 164.005 40.4362Z" fill="#4685FF" stroke="#4685FF" stroke-linejoin="round"/>
<path d="M333.403 24L198.004 83.9415L229.936 107.778C236.322 112.53 245.24 111.906 250.886 106.298L333.403 24Z" fill="#4685FF" stroke="#4685FF" stroke-linejoin="round"/>
</svg>
