<svg width="370" height="370" viewBox="0 0 370 370" fill="none" xmlns="http://www.w3.org/2000/svg">
<path d="M42.47 280.769H79.08" stroke="#070D19" stroke-width="0.75" stroke-linecap="round" stroke-linejoin="round"/>
<path d="M39 287.659H88.37" stroke="#070D19" stroke-width="0.75" stroke-linecap="round" stroke-linejoin="round"/>
<path d="M268.36 287.659H330.47" stroke="#070D19" stroke-width="0.75" stroke-linecap="round" stroke-linejoin="round"/>
<path d="M181.04 153.619C181.04 153.619 206.34 164.589 210.38 170.579C214.42 176.569 238.08 236.839 238.08 236.839L217.98 241.889C216.05 242.379 214.56 243.919 214.13 245.859L212.92 251.469L200.57 228.109C200.32 230.779 199.89 233.259 199.16 235.459V237.959C199.16 237.959 198.43 258.939 199.64 280.769H156.61C156.61 280.769 156.46 279.679 155.46 278.679C154.46 277.679 141.12 273.839 140.19 273.839C139.26 273.839 132.25 276.169 128.42 283.829C124.76 291.149 126.38 298.389 126.38 298.389C119.67 298.389 83.0199 288.219 80.4799 283.799C77.9399 279.379 74.7199 266.999 75.4499 257.329C76.1799 247.659 87.2299 181.209 94.6999 173.739C102.17 166.269 135.55 150.999 135.55 150.999C135.55 150.999 161.05 156.949 167.56 156.199C174.07 155.449 181.06 153.619 181.06 153.619H181.04Z" fill="#6B9DFF"/>
<path d="M166.28 163.959C166.28 163.959 169.14 203.399 169.14 224.689C169.14 245.979 166.89 280.819 166.89 280.819" stroke="#315DB3" stroke-width="0.75" stroke-linecap="round" stroke-linejoin="round"/>
<path d="M143.59 140.429C145.49 127.749 145.19 122.169 144.64 113.719L147.47 111.989C147.47 111.989 147.8 120.909 149.62 127.129C151.44 133.359 166.89 141.979 169.23 142.899C172.43 144.149 174.66 143.839 174.66 143.839C174.66 143.839 174.93 145.409 174.93 147.299C174.93 152.329 167.54 156.199 167.54 156.199C167.54 156.199 161.26 153.639 153.49 148.869C145.72 144.099 143.59 140.429 143.59 140.429Z" fill="#FFC5A9"/>
<path d="M198.78 287.269L216.26 283.089L280.42 286.939C282.45 287.059 282.81 289.899 280.87 290.529L198.73 316.989L135.29 305.219C133.8 304.939 133.75 302.829 135.22 302.479" fill="#315DB3"/>
<path d="M145.73 100.429C145.73 100.429 146.68 124.669 148.04 128.579C149.4 132.499 165.72 143.179 169.19 144.489C172.66 145.799 178.58 145.269 181.42 144.489C184.26 143.709 189.45 133.359 191.23 127.549C193 121.739 194.89 117.339 195.31 113.669C195.72 109.999 194.71 106.249 194.71 105.299C194.71 104.349 196.2 100.689 196.2 98.1287C196.2 93.8687 194.42 80.6787 194.42 80.6787C194.42 80.6787 194.36 79.2187 194.04 77.9687C189.73 77.9687 188.97 81.4387 186.71 81.6487C184.45 81.8587 162.8 69.0387 156.77 74.3687C154.15 76.9887 156.77 89.5587 156.77 89.5587L145.74 90.4787V100.419L145.73 100.429Z" fill="#FFDDC5"/>
<path d="M178.56 97.2587C178.03 96.7287 177.29 95.8287 174.32 94.9287C171.35 94.0287 168.1 93.5487 165.6 94.0287C163.1 94.5087 158.54 96.8887 159.4 97.3187C160.2 97.7187 161.58 96.1187 165.63 95.5187C168.84 95.0387 170.62 95.6987 173.47 96.8387C176.51 98.0387 177.61 100.499 178.61 100.129C179.61 99.7587 179.09 97.7987 178.56 97.2687V97.2587Z" fill="#070D19"/>
<path d="M186.36 98.2087C187.29 96.2687 192.47 95.6987 194.28 95.6987C196.09 95.6987 196.18 97.3387 196.18 97.3387L196.2 98.1387C196.2 98.1387 195.85 97.0387 194.01 97.0387C187.95 97.3787 187.45 100.609 186.37 100.459C186.03 100.409 185.66 99.3887 186.37 98.2187L186.36 98.2087Z" fill="#070D19"/>
<path d="M175.77 103.009C175.31 103.119 175.33 100.829 172.57 99.6287C169.81 98.4287 164.89 99.5887 164.72 99.2787C164.65 99.1387 169.94 97.7487 173.25 99.5087C175.88 100.909 176.02 102.939 175.77 102.999V103.009Z" fill="#070D19"/>
<path d="M186.23 104.109C186.57 104.209 186.56 102.139 188.6 101.059C190.73 99.9288 194.28 101.029 194.4 100.739C194.45 100.619 190.54 99.3488 188.1 100.949C186.16 102.219 186.05 104.049 186.24 104.109H186.23Z" fill="#070D19"/>
<path d="M143.3 139.789C143.3 142.529 154.52 150.629 167.54 156.199C167.54 156.199 165.93 156.109 163.59 158.449C161.25 160.789 159.95 168.259 158.04 168.259C156.13 168.259 137.38 155.269 135.35 150.649C137.64 147.809 141.91 137.459 143.3 139.789Z" fill="#315DB3"/>
<path d="M174.51 144.449C176.3 150.009 172.28 153.249 167.55 156.189C167.55 156.189 170.31 155.849 171.94 157.479C173.57 159.109 176.57 166.399 177.77 166.399C178.97 166.399 179.8 158.059 181.2 153.029C180.58 150.459 174.97 143.929 174.51 144.449Z" fill="#315DB3"/>
<path d="M102.58 178.989C113.01 181.799 120.9 192.189 126.7 208.859C127.98 217.849 114 244.159 114 258.379" stroke="#315DB3" stroke-width="0.75" stroke-linecap="round" stroke-linejoin="round"/>
<path d="M92.75 265.559C94.54 261.539 106.34 254.919 113 258.119C119.66 261.319 131.57 266.799 134.02 268.359C136.47 269.919 138.92 273.839 138.92 273.839" stroke="#315DB3" stroke-width="0.75" stroke-linecap="round" stroke-linejoin="round"/>
<path d="M206.94 300.619C206.94 300.619 209.14 300.849 208.74 299.769C208.34 298.689 206.03 292.369 203.94 290.689C201.84 289.019 193.95 283.859 190.26 283.859C186.57 283.859 170.54 286.539 170.54 286.539L156.27 280.769C156.27 280.769 150.19 281.919 146.15 287.969C142.1 294.019 144.01 299.089 144.01 299.089C144.01 299.089 160.85 300.159 162.84 301.639C164.83 303.119 167.08 306.129 170.19 306.849C173.3 307.569 186.18 304.909 187.86 305.469C189.54 306.029 196.28 310.879 198.19 310.879C200.1 310.879 200.62 309.879 199.7 308.969C198.78 308.059 195.52 305.489 194.55 304.429C193.58 303.369 190.22 300.739 188.46 300.159C186.7 299.579 183.72 299.429 183.72 299.429C185.46 299.509 187.08 299.699 188.46 300.159C188.46 300.159 192.57 302.039 194.16 303.119C195.76 304.199 200.79 307.389 201.92 308.259C203.05 309.129 206.68 308.539 205.13 306.449C203.34 304.049 201.7 302.269 200.84 301.269C199.78 300.029 197.73 298.199 196.51 296.989C195.29 295.769 186.58 292.939 186.58 292.939C189.86 294.029 192.67 295.059 194.86 296.029C194.86 296.029 204.42 304.699 206.48 306.019C208.54 307.349 209.38 305.249 208.36 303.309C207.43 301.539 205.82 298.369 204.15 295.759C202.48 293.149 200.14 292.319 198.7 291.289C197.26 290.259 189.71 287.529 189.71 287.529C192.71 288.649 196.21 290.009 198.7 291.289C200.41 292.169 203.19 293.949 204.15 295.759C205.25 297.849 205.86 297.619 206.95 300.619H206.94Z" fill="#FFDDC5"/>
<path d="M208.79 181.349C206.6 199.389 201.39 211.069 201.39 211.069" stroke="#315DB3" stroke-width="0.75" stroke-linecap="round" stroke-linejoin="round"/>
<path d="M173.25 201.959C173.25 200.629 201.65 199.439 201.65 201.339C201.65 203.239 201.01 227.469 200.13 231.939C199.25 236.409 196.25 241.539 194.85 242.039C193.45 242.539 181.24 243.169 179.83 242.039C178.42 240.909 172.07 236.409 172.66 231.349C173.83 217.729 173.25 203.289 173.25 201.949V201.959Z" fill="#315DB3"/>
<path d="M168.34 164.619C170.047 164.619 171.43 163.235 171.43 161.529C171.43 159.822 170.047 158.439 168.34 158.439C166.633 158.439 165.25 159.822 165.25 161.529C165.25 163.235 166.633 164.619 168.34 164.619Z" fill="#315DB3" stroke="#315DB3" stroke-width="0.75" stroke-linecap="round" stroke-linejoin="round"/>
<path d="M173.36 207.159L190.34 211.069L201.4 207.159" stroke="#6B9DFF" stroke-linecap="round" stroke-linejoin="round"/>
<path d="M156.6 281H206.57" stroke="#070D19" stroke-width="0.75" stroke-linecap="round" stroke-linejoin="round"/>
<path d="M163.27 101.209C163.27 101.209 168.2 99.9087 171.06 100.659C173.92 101.409 175.04 104.119 175.04 104.119C175.04 104.119 172.88 105.649 169.97 105.149C167.06 104.659 165.57 103.289 164.73 102.439C163.89 101.589 163.27 101.199 163.27 101.199V101.209Z" fill="white"/>
<path d="M175.59 104.819C175.91 104.359 174.51 101.489 172.76 100.619C171.18 99.8287 167.94 99.9587 166.25 100.139C164.56 100.319 161.11 101.049 161.11 101.359C161.11 101.669 163.99 101.139 166.43 100.999C168.87 100.859 170.94 100.999 172.49 101.789C174.04 102.579 175.21 105.359 175.59 104.819Z" fill="#070D19"/>
<path d="M172.89 102.289C172.89 102.899 172.89 103.729 172.36 104.399C171.96 104.899 171.19 105.249 170.25 105.209C169.24 105.169 168.29 104.569 168.01 103.929C167.62 103.019 167.9 101.199 168.99 100.689C170.05 100.189 172.89 100.849 172.89 102.289Z" fill="#070D19"/>
<path d="M175.13 104.119C174.94 103.679 173.46 105.129 170.14 104.889C166.82 104.649 163.5 101.029 163.18 101.209C163.04 101.279 166.21 105.219 170.18 105.449C174.15 105.679 175.26 104.409 175.14 104.119H175.13Z" fill="#070D19"/>
<path d="M189.67 101.669C188.14 102.129 186.96 104.659 186.96 104.659C186.96 104.659 189.22 106.409 191.7 105.429C194.18 104.449 195.01 101.759 195.01 101.759C195.01 101.759 192.15 100.929 189.67 101.669Z" fill="white"/>
<path d="M186.37 105.369C186.13 104.949 187.36 102.169 188.76 101.569C190.68 100.739 192.02 100.969 193.27 101.139C194.52 101.309 195.8 101.559 195.6 101.759C195.32 102.039 194.94 102.049 193.13 101.919C191.32 101.789 190.34 101.689 189.17 102.369C187.71 103.209 186.64 105.859 186.36 105.379L186.37 105.369Z" fill="#070D19"/>
<path d="M188.36 103.079C188.36 103.629 188.36 104.379 188.75 104.989C189.04 105.439 189.61 105.759 190.31 105.719C191.05 105.679 191.76 105.149 191.96 104.559C192.25 103.739 192.04 102.089 191.24 101.629C190.44 101.169 188.35 101.769 188.35 103.079H188.36Z" fill="#070D19"/>
<path d="M186.71 104.729C186.85 104.329 187.94 105.589 190.4 105.429C193.56 105.209 194.69 101.599 194.93 101.759C195.03 101.829 194.4 105.719 190.37 105.939C187.43 106.089 186.62 104.999 186.71 104.739V104.729Z" fill="#070D19"/>
<path d="M171.52 126.569C171.52 126.569 175.17 131.069 181.28 130.769C187.06 130.489 187.25 127.489 187.25 127.489C184.9 127.139 183.58 128.299 182.15 128.299C180.72 128.299 178.8 127.139 171.51 126.579L171.52 126.569Z" fill="#E8A381"/>
<path d="M172.4 126.499C172.4 126.499 177.8 125.549 179.64 125.679C180.56 125.819 181.83 126.769 182.15 126.769C182.47 126.769 183.22 125.809 184.44 125.679C185.66 125.549 187.25 127.279 187.25 127.279L182.3 128.279L172.39 126.489L172.4 126.499Z" fill="#E8A381"/>
<path d="M169.16 125.979C169.16 125.979 175.85 127.049 178.25 127.469C180.65 127.889 181.11 128.299 182.16 128.299C183.21 128.299 183.63 127.889 185.06 127.589C186.49 127.289 187.8 127.289 187.8 127.289" stroke="#070D19" stroke-width="0.5" stroke-linecap="round" stroke-linejoin="round"/>
<path d="M180.28 48.8687C165.44 43.4287 151.01 46.3787 143.57 52.2687C136.4 57.9487 137.94 67.2887 137.94 67.2887C137.94 67.2887 134.6 67.4087 132.36 72.8187C128.53 82.0687 134.18 98.1687 134.18 98.1687L145.04 121.369L144.39 108.629L145.73 111.649C145.73 111.649 146.88 125.059 147.46 127.989C148.22 131.899 165.67 143.899 169.2 144.759C172.73 145.629 179.93 145.709 182.27 144.219C185.43 142.209 189.23 134.429 190.68 130.619C193.08 124.329 194.03 119.019 194.03 119.019C193.11 121.149 192.13 123.089 190.97 124.369C190.97 124.369 190.99 122.449 189.13 121.479C187.66 120.709 184.51 120.329 181.33 120.139C173.27 119.669 167.91 120.049 166.21 121.749C164.83 123.129 164.38 124.789 164.38 124.789C164.38 124.789 152.35 126.039 151.19 117.379C150.03 108.719 149.77 95.6587 150.8 92.1987C151.83 88.7287 156.61 91.6387 157.4 89.9687C158.19 88.2987 154.56 76.7687 157.97 74.6387C164.68 71.4587 183.23 82.0787 186 82.3487C188.76 82.6187 189.5 79.2387 193.83 79.2387L196.19 95.1187L199.22 80.6887C200.35 81.1087 201.56 81.8187 202.41 82.0587C203.93 82.4987 204.9 80.7487 204.67 76.9687C204.38 72.2087 197.96 55.3487 180.28 48.8687ZM168.54 124.029C169.98 123.149 175.36 121.529 181.29 121.949C186.18 122.289 188.62 124.119 188.92 125.329C189.22 126.539 188.92 128.479 188.68 129.559C188.44 130.639 186.59 135.689 184.18 136.529C181.77 137.369 175.09 137.549 172.26 136.529C169.43 135.509 167.45 131.239 167.45 129.559C167.45 127.879 167.55 124.639 168.54 124.039V124.029Z" fill="#070D19"/>
<path d="M145.12 95.2387C145.12 95.2387 142.83 90.7587 139.49 90.7587C136.15 90.7587 134.18 94.9287 134.18 98.9787C134.18 102.189 135.53 104.419 137.3 107.809C139.07 111.199 139.55 112.999 141.34 114.039C143.14 115.089 145.84 112.979 145.84 112.979L145.12 95.2387Z" fill="#FFC5A9"/>
<path d="M143.81 107.679C143.81 107.679 141.91 106.799 141.91 104.899C141.91 102.999 143.81 102.139 143.81 102.139C143.81 102.139 143.81 98.6387 142.6 96.1987C141.39 93.7587 140.14 92.6687 139.07 92.6687C138 92.6687 136.39 94.3387 136.39 96.9987" stroke="#070D19" stroke-width="0.75" stroke-linecap="round" stroke-linejoin="round"/>
<path d="M140.11 103.209C140.11 103.209 140.88 100.589 143.68 100.159" stroke="#070D19" stroke-width="0.75" stroke-linecap="round" stroke-linejoin="round"/>
<path d="M186.5 98.7587C185.74 100.159 185.78 103.839 186.28 106.999C186.78 110.159 189.18 120.689 185.71 121.389C182.44 122.039 181.63 120.279 179.94 120.159C178.25 120.039 178.4 120.619 177.42 120.009C176.73 119.579 176.51 118.149 177.12 116.819C177.73 115.489 178.85 114.669 179.72 114.289" fill="#FFE1C3"/>
<path d="M186.5 98.7587C185.74 100.159 185.78 103.839 186.28 106.999C186.78 110.159 189.18 120.689 185.71 121.389C182.44 122.039 181.63 120.279 179.94 120.159C178.25 120.039 178.4 120.619 177.42 120.009C176.73 119.579 176.51 118.149 177.12 116.819C177.73 115.489 178.85 114.669 179.72 114.289" stroke="#070D19" stroke-width="0.75" stroke-linecap="round" stroke-linejoin="round"/>
<path d="M189.49 287.529C189.49 287.529 197.04 290.249 198.48 291.289C199.92 292.329 203.07 294.679 203.93 295.759C204.79 296.839 207.21 301.539 208.14 303.309C209.16 305.249 208.32 307.339 206.26 306.019" stroke="#EDB095" stroke-width="0.75" stroke-linecap="round" stroke-linejoin="round"/>
<path d="M186.36 292.939C186.36 292.939 195.07 295.769 196.29 296.989C197.51 298.209 199.56 300.029 200.62 301.269C201.48 302.279 203.13 304.049 204.91 306.449" stroke="#EDB095" stroke-width="0.75" stroke-linecap="round" stroke-linejoin="round"/>
<path d="M214.07 246.139L198.9 316.199C198.82 316.549 199.16 316.849 199.5 316.739L286.91 288.579C288.96 287.919 290.55 286.289 291.15 284.219L309.15 222.849C309.69 221.009 308.02 219.269 306.16 219.739L218.26 241.819C216.16 242.349 214.54 244.019 214.08 246.139H214.07Z" fill="#315DB3"/>
<path d="M140.18 273.839C138.92 273.839 131.23 276.999 128.01 284.219C124.3 292.549 125.73 297.369 126.6 299.009C127.47 300.649 143.99 304.329 146.03 303.979C148.07 303.629 149.99 299.589 149.99 299.589C149.99 299.589 146.47 302.369 145.11 301.009C143.75 299.649 142.29 295.419 145.62 288.909C148.96 282.409 156.6 280.689 156.6 280.689C156.6 280.689 156.65 279.809 155.68 278.839C154.36 277.519 141.45 273.839 140.18 273.839Z" fill="#C8DAFF"/>
<path d="M156.6 280.679C156.6 280.679 148.54 282.189 145.22 289.729C141.9 297.259 143.96 300.819 145.73 301.339C147.5 301.859 149.99 299.589 149.99 299.589L144.33 299.009C144.33 299.009 143.35 295.969 145.85 289.809C148.34 283.649 156.6 280.909 156.6 280.909V280.689V280.679Z" fill="#315DB3"/>
<path d="M126.6 299.009C126.6 299.009 124.16 289.439 128.75 282.759C133.34 276.079 138.55 273.519 140.18 273.839C141.81 274.149 154 276.829 155.45 278.279C156.91 279.739 156.6 280.689 156.6 280.689" stroke="#315DB3" stroke-width="0.75" stroke-linecap="round" stroke-linejoin="round"/>
<path d="M266.966 266.786C268.995 262.744 268.508 258.396 265.877 257.075C263.246 255.755 259.469 257.961 257.439 262.003C255.409 266.045 255.897 270.393 258.528 271.714C261.158 273.035 264.936 270.829 266.966 266.786Z" fill="#6B9DFF"/>
<path d="M292 281H320.01" stroke="#070D19" stroke-width="0.75" stroke-linecap="round" stroke-linejoin="round"/>
</svg>
