<svg width="768" height="483" viewBox="0 0 768 483" fill="none" xmlns="http://www.w3.org/2000/svg">
<g filter="url(#filter0_dii_166_3851)">
<rect x="24" y="20" width="720" height="434" rx="20" fill="#15284C"/>
<mask id="mask0_166_3851" style="mask-type:alpha" maskUnits="userSpaceOnUse" x="44" y="40" width="680" height="394">
<rect x="44" y="40" width="680" height="394" rx="5" fill="#8F8F8F"/>
</mask>
<g mask="url(#mask0_166_3851)">
<rect x="44" y="40" width="680" height="394" rx="3" fill="#F9FBFF"/>
<g filter="url(#filter1_d_166_3851)">
<rect x="144" y="127" width="480" height="246.908" rx="20" fill="white"/>
</g>
<path d="M166.564 346.792H167.444V351.991C167.444 352.455 167.359 352.849 167.189 353.174C167.018 353.498 166.778 353.744 166.468 353.912C166.158 354.08 165.792 354.164 165.371 354.164C164.973 354.164 164.619 354.092 164.309 353.948C163.999 353.801 163.755 353.593 163.577 353.323C163.4 353.053 163.311 352.732 163.311 352.36H164.177C164.177 352.566 164.228 352.746 164.33 352.9C164.434 353.052 164.576 353.17 164.756 353.255C164.936 353.341 165.141 353.383 165.371 353.383C165.624 353.383 165.839 353.33 166.017 353.223C166.194 353.117 166.329 352.961 166.422 352.755C166.516 352.546 166.564 352.292 166.564 351.991V346.792ZM170.108 354.065H169.184L171.855 346.792H172.764L175.434 354.065H174.511L172.338 347.943H172.281L170.108 354.065ZM170.449 351.224H174.17V352.005H170.449V351.224ZM182.934 346.792V354.065H182.082L178.119 348.355H178.048V354.065H177.167V346.792H178.019L181.997 352.517H182.068V346.792H182.934Z" fill="#615E83"/>
<path d="M200.647 354.184V346.911H205.008V347.692H201.528V350.15H204.681V350.931H201.528V354.184H200.647ZM207.116 354.184V346.911H211.505V347.692H207.997V350.15H211.278V350.931H207.997V353.402H211.562V354.184H207.116ZM213.693 354.184V346.911H216.235C216.742 346.911 217.16 346.998 217.489 347.174C217.818 347.346 218.063 347.58 218.224 347.873C218.385 348.164 218.465 348.488 218.465 348.843C218.465 349.155 218.41 349.413 218.298 349.617C218.189 349.82 218.045 349.981 217.865 350.1C217.688 350.218 217.495 350.306 217.286 350.363V350.434C217.509 350.448 217.733 350.526 217.957 350.668C218.182 350.81 218.371 351.014 218.522 351.279C218.674 351.544 218.749 351.868 218.749 352.252C218.749 352.616 218.667 352.944 218.501 353.235C218.335 353.527 218.073 353.757 217.716 353.928C217.359 354.098 216.893 354.184 216.32 354.184H213.693ZM214.573 353.402H216.32C216.896 353.402 217.304 353.291 217.546 353.069C217.789 352.844 217.911 352.571 217.911 352.252C217.911 352.006 217.849 351.778 217.723 351.57C217.598 351.359 217.419 351.191 217.187 351.066C216.955 350.938 216.68 350.874 216.363 350.874H214.573V353.402ZM214.573 350.107H216.207C216.472 350.107 216.711 350.055 216.924 349.951C217.14 349.846 217.31 349.7 217.435 349.51C217.563 349.321 217.627 349.098 217.627 348.843C217.627 348.523 217.516 348.252 217.293 348.029C217.071 347.805 216.718 347.692 216.235 347.692H214.573V350.107Z" fill="#615E83"/>
<path d="M234.702 346.911H235.753L238.224 352.948H238.31L240.781 346.911H241.832V354.184H241.008V348.658H240.937L238.665 354.184H237.869L235.597 348.658H235.526V354.184H234.702V346.911ZM244.496 354.184H243.573L246.244 346.911H247.153L249.823 354.184H248.9L246.727 348.061H246.67L244.496 354.184ZM244.837 351.343H248.559V352.124H244.837V351.343ZM251.556 354.184V346.911H254.013C254.582 346.911 255.048 347.008 255.412 347.202C255.777 347.394 256.047 347.658 256.222 347.994C256.397 348.33 256.485 348.712 256.485 349.141C256.485 349.569 256.397 349.949 256.222 350.281C256.047 350.612 255.778 350.873 255.416 351.062C255.054 351.249 254.591 351.343 254.028 351.343H252.039V350.547H253.999C254.387 350.547 254.7 350.49 254.937 350.377C255.176 350.263 255.349 350.102 255.455 349.894C255.564 349.683 255.618 349.432 255.618 349.141C255.618 348.85 255.564 348.595 255.455 348.377C255.346 348.16 255.172 347.992 254.933 347.873C254.694 347.752 254.378 347.692 253.985 347.692H252.437V354.184H251.556ZM254.979 350.917L256.769 354.184H255.746L253.985 350.917H254.979Z" fill="#615E83"/>
<path d="M274.479 354.184H273.555L276.226 346.911H277.135L279.805 354.184H278.882L276.709 348.061H276.652L274.479 354.184ZM274.82 351.343H278.541V352.124H274.82V351.343ZM281.538 354.184V346.911H283.996C284.566 346.911 285.032 347.014 285.395 347.22C285.759 347.423 286.029 347.699 286.204 348.047C286.38 348.395 286.467 348.783 286.467 349.212C286.467 349.641 286.38 350.03 286.204 350.38C286.032 350.731 285.764 351.01 285.402 351.218C285.04 351.424 284.576 351.527 284.01 351.527H282.248V350.746H283.981C284.372 350.746 284.686 350.679 284.922 350.544C285.159 350.409 285.331 350.226 285.437 349.997C285.546 349.765 285.601 349.503 285.601 349.212C285.601 348.921 285.546 348.66 285.437 348.431C285.331 348.201 285.158 348.021 284.919 347.891C284.68 347.758 284.362 347.692 283.967 347.692H282.419V354.184H281.538ZM288.486 354.184V346.911H290.943C291.511 346.911 291.978 347.008 292.342 347.202C292.707 347.394 292.977 347.658 293.152 347.994C293.327 348.33 293.415 348.712 293.415 349.141C293.415 349.569 293.327 349.949 293.152 350.281C292.977 350.612 292.708 350.873 292.346 351.062C291.984 351.249 291.521 351.343 290.957 351.343H288.969V350.547H290.929C291.317 350.547 291.63 350.49 291.866 350.377C292.106 350.263 292.278 350.102 292.385 349.894C292.494 349.683 292.548 349.432 292.548 349.141C292.548 348.85 292.494 348.595 292.385 348.377C292.276 348.16 292.102 347.992 291.863 347.873C291.624 347.752 291.308 347.692 290.915 347.692H289.366V354.184H288.486ZM291.909 350.917L293.699 354.184H292.676L290.915 350.917H291.909Z" fill="#615E83"/>
<path d="M309.975 346.911H311.026L313.498 352.948H313.583L316.055 346.911H317.106V354.184H316.282V348.658H316.211L313.938 354.184H313.143L310.87 348.658H310.799V354.184H309.975V346.911ZM319.77 354.184H318.846L321.517 346.911H322.426L325.096 354.184H324.173L322 348.061H321.943L319.77 354.184ZM320.111 351.343H323.832V352.124H320.111V351.343ZM325.462 346.911H326.471L328.488 350.306H328.573L330.59 346.911H331.598L328.971 351.186V354.184H328.09V351.186L325.462 346.911Z" fill="#615E83"/>
<path d="M350.639 346.911H351.52V352.11C351.52 352.574 351.435 352.968 351.264 353.292C351.094 353.617 350.854 353.863 350.543 354.031C350.233 354.199 349.867 354.283 349.446 354.283C349.048 354.283 348.694 354.211 348.384 354.066C348.074 353.92 347.83 353.711 347.653 353.441C347.475 353.172 347.386 352.851 347.386 352.479H348.253C348.253 352.685 348.304 352.865 348.406 353.019C348.51 353.17 348.652 353.289 348.832 353.374C349.012 353.459 349.216 353.502 349.446 353.502C349.699 353.502 349.915 353.449 350.092 353.342C350.27 353.235 350.405 353.079 350.497 352.873C350.592 352.665 350.639 352.41 350.639 352.11V346.911ZM358.658 346.911H359.538V351.726C359.538 352.223 359.421 352.667 359.187 353.058C358.955 353.446 358.627 353.753 358.203 353.978C357.779 354.2 357.282 354.311 356.712 354.311C356.141 354.311 355.644 354.2 355.22 353.978C354.796 353.753 354.467 353.446 354.233 353.058C354.001 352.667 353.885 352.223 353.885 351.726V346.911H354.766V351.655C354.766 352.01 354.844 352.326 355 352.603C355.156 352.878 355.379 353.095 355.668 353.253C355.959 353.409 356.307 353.488 356.712 353.488C357.116 353.488 357.464 353.409 357.756 353.253C358.047 353.095 358.269 352.878 358.423 352.603C358.579 352.326 358.658 352.01 358.658 351.655V346.911ZM367.664 346.911V354.184H366.812L362.849 348.473H362.778V354.184H361.897V346.911H362.749L366.727 352.635H366.798V346.911H367.664Z" fill="#615E83"/>
<path d="M388.876 346.911H389.757V352.11C389.757 352.574 389.671 352.968 389.501 353.292C389.33 353.617 389.09 353.863 388.78 354.031C388.47 354.199 388.104 354.283 387.683 354.283C387.285 354.283 386.931 354.211 386.621 354.066C386.311 353.92 386.067 353.711 385.889 353.441C385.712 353.172 385.623 352.851 385.623 352.479H386.49C386.49 352.685 386.54 352.865 386.642 353.019C386.746 353.17 386.888 353.289 387.068 353.374C387.248 353.459 387.453 353.502 387.683 353.502C387.936 353.502 388.151 353.449 388.329 353.342C388.507 353.235 388.642 353.079 388.734 352.873C388.829 352.665 388.876 352.41 388.876 352.11V346.911ZM396.894 346.911H397.775V351.726C397.775 352.223 397.658 352.667 397.423 353.058C397.191 353.446 396.863 353.753 396.44 353.978C396.016 354.2 395.519 354.311 394.948 354.311C394.378 354.311 393.88 354.2 393.457 353.978C393.033 353.753 392.704 353.446 392.47 353.058C392.237 352.667 392.121 352.223 392.121 351.726V346.911H393.002V351.655C393.002 352.01 393.08 352.326 393.237 352.603C393.393 352.878 393.615 353.095 393.904 353.253C394.195 353.409 394.543 353.488 394.948 353.488C395.353 353.488 395.701 353.409 395.992 353.253C396.283 353.095 396.506 352.878 396.66 352.603C396.816 352.326 396.894 352.01 396.894 351.655V346.911ZM400.134 354.184V346.911H401.014V353.402H404.395V354.184H400.134Z" fill="#615E83"/>
<path d="M421.188 354.184H420.264L422.935 346.911H423.844L426.514 354.184H425.591L423.418 348.061H423.361L421.188 354.184ZM421.529 351.343H425.25V352.124H421.529V351.343ZM433.02 346.911H433.901V351.726C433.901 352.223 433.783 352.667 433.549 353.058C433.317 353.446 432.989 353.753 432.565 353.978C432.142 354.2 431.644 354.311 431.074 354.311C430.503 354.311 430.006 354.2 429.582 353.978C429.159 353.753 428.83 353.446 428.595 353.058C428.363 352.667 428.247 352.223 428.247 351.726V346.911H429.128V351.655C429.128 352.01 429.206 352.326 429.362 352.603C429.518 352.878 429.741 353.095 430.03 353.253C430.321 353.409 430.669 353.488 431.074 353.488C431.479 353.488 431.827 353.409 432.118 353.253C432.409 353.095 432.632 352.878 432.786 352.603C432.942 352.326 433.02 352.01 433.02 351.655V346.911ZM441.231 349.184C441.153 348.944 441.05 348.73 440.922 348.541C440.796 348.349 440.646 348.186 440.471 348.051C440.298 347.916 440.102 347.813 439.881 347.742C439.661 347.671 439.42 347.635 439.157 347.635C438.726 347.635 438.334 347.747 437.982 347.969C437.629 348.192 437.348 348.52 437.14 348.953C436.932 349.386 436.827 349.917 436.827 350.547C436.827 351.177 436.933 351.708 437.144 352.142C437.354 352.575 437.639 352.903 437.999 353.125C438.359 353.348 438.764 353.459 439.214 353.459C439.631 353.459 439.997 353.37 440.315 353.193C440.634 353.013 440.883 352.76 441.06 352.433C441.24 352.104 441.33 351.717 441.33 351.272L441.6 351.328H439.413V350.547H442.183V351.328C442.183 351.927 442.055 352.448 441.799 352.891C441.546 353.334 441.195 353.677 440.748 353.921C440.303 354.162 439.791 354.283 439.214 354.283C438.57 354.283 438.004 354.132 437.516 353.828C437.031 353.525 436.652 353.095 436.38 352.536C436.11 351.977 435.975 351.314 435.975 350.547C435.975 349.972 436.052 349.455 436.206 348.995C436.362 348.534 436.582 348.141 436.867 347.816C437.151 347.492 437.487 347.243 437.875 347.071C438.263 346.898 438.691 346.811 439.157 346.811C439.541 346.811 439.898 346.869 440.229 346.985C440.563 347.099 440.86 347.261 441.121 347.472C441.384 347.68 441.603 347.93 441.778 348.221C441.953 348.51 442.074 348.831 442.14 349.184H441.231Z" fill="#615E83"/>
<path d="M463.601 348.729C463.559 348.369 463.386 348.09 463.083 347.891C462.78 347.692 462.408 347.593 461.968 347.593C461.646 347.593 461.364 347.645 461.123 347.749C460.884 347.853 460.696 347.996 460.562 348.179C460.429 348.361 460.363 348.568 460.363 348.8C460.363 348.994 460.409 349.161 460.501 349.301C460.596 349.438 460.717 349.553 460.863 349.645C461.01 349.735 461.164 349.81 461.325 349.869C461.486 349.926 461.634 349.972 461.769 350.007L462.508 350.206C462.697 350.256 462.908 350.325 463.14 350.412C463.374 350.5 463.598 350.619 463.811 350.771C464.026 350.92 464.204 351.112 464.344 351.346C464.483 351.581 464.553 351.868 464.553 352.209C464.553 352.602 464.45 352.957 464.244 353.275C464.04 353.592 463.742 353.844 463.349 354.031C462.959 354.218 462.484 354.311 461.925 354.311C461.404 354.311 460.953 354.227 460.572 354.059C460.193 353.891 459.895 353.657 459.677 353.356C459.462 353.056 459.34 352.706 459.312 352.309H460.221C460.244 352.583 460.337 352.81 460.498 352.99C460.661 353.168 460.867 353.301 461.116 353.388C461.366 353.473 461.636 353.516 461.925 353.516C462.261 353.516 462.563 353.462 462.831 353.353C463.098 353.241 463.31 353.087 463.466 352.891C463.623 352.692 463.701 352.46 463.701 352.195C463.701 351.953 463.633 351.757 463.498 351.605C463.363 351.454 463.186 351.331 462.966 351.236C462.745 351.141 462.508 351.059 462.252 350.988L461.357 350.732C460.789 350.569 460.339 350.335 460.008 350.032C459.676 349.729 459.51 349.333 459.51 348.843C459.51 348.435 459.62 348.08 459.841 347.777C460.063 347.472 460.362 347.235 460.736 347.067C461.112 346.897 461.532 346.811 461.996 346.811C462.465 346.811 462.882 346.895 463.246 347.064C463.611 347.229 463.9 347.457 464.113 347.745C464.328 348.034 464.442 348.362 464.454 348.729H463.601ZM466.601 354.184V346.911H470.99V347.692H467.482V350.15H470.763V350.931H467.482V353.402H471.047V354.184H466.601ZM473.178 354.184V346.911H475.635C476.206 346.911 476.672 347.014 477.034 347.22C477.399 347.423 477.669 347.699 477.844 348.047C478.019 348.395 478.107 348.783 478.107 349.212C478.107 349.641 478.019 350.03 477.844 350.38C477.671 350.731 477.403 351.01 477.041 351.218C476.679 351.424 476.215 351.527 475.649 351.527H473.888V350.746H475.621C476.011 350.746 476.325 350.679 476.562 350.544C476.799 350.409 476.97 350.226 477.077 349.997C477.186 349.765 477.24 349.503 477.24 349.212C477.24 348.921 477.186 348.66 477.077 348.431C476.97 348.201 476.797 348.021 476.558 347.891C476.319 347.758 476.002 347.692 475.607 347.692H474.058V354.184H473.178Z" fill="#615E83"/>
<path d="M500.822 350.547C500.822 351.314 500.683 351.977 500.406 352.536C500.129 353.095 499.749 353.525 499.266 353.828C498.783 354.132 498.232 354.283 497.611 354.283C496.991 354.283 496.44 354.132 495.957 353.828C495.474 353.525 495.094 353.095 494.817 352.536C494.54 351.977 494.401 351.314 494.401 350.547C494.401 349.78 494.54 349.117 494.817 348.559C495.094 348 495.474 347.569 495.957 347.266C496.44 346.963 496.991 346.811 497.611 346.811C498.232 346.811 498.783 346.963 499.266 347.266C499.749 347.569 500.129 348 500.406 348.559C500.683 349.117 500.822 349.78 500.822 350.547ZM499.969 350.547C499.969 349.917 499.864 349.386 499.653 348.953C499.445 348.52 499.162 348.192 498.805 347.969C498.449 347.747 498.052 347.635 497.611 347.635C497.171 347.635 496.772 347.747 496.415 347.969C496.06 348.192 495.777 348.52 495.566 348.953C495.358 349.386 495.253 349.917 495.253 350.547C495.253 351.177 495.358 351.708 495.566 352.142C495.777 352.575 496.06 352.903 496.415 353.125C496.772 353.348 497.171 353.459 497.611 353.459C498.052 353.459 498.449 353.348 498.805 353.125C499.162 352.903 499.445 352.575 499.653 352.142C499.864 351.708 499.969 351.177 499.969 350.547ZM508.755 349.184H507.874C507.822 348.93 507.731 348.708 507.601 348.516C507.473 348.324 507.317 348.163 507.132 348.033C506.95 347.9 506.747 347.801 506.525 347.735C506.302 347.668 506.07 347.635 505.829 347.635C505.388 347.635 504.989 347.747 504.632 347.969C504.277 348.192 503.994 348.52 503.783 348.953C503.575 349.386 503.471 349.917 503.471 350.547C503.471 351.177 503.575 351.708 503.783 352.142C503.994 352.575 504.277 352.903 504.632 353.125C504.989 353.348 505.388 353.459 505.829 353.459C506.07 353.459 506.302 353.426 506.525 353.36C506.747 353.293 506.95 353.195 507.132 353.065C507.317 352.932 507.473 352.77 507.601 352.578C507.731 352.384 507.822 352.162 507.874 351.911H508.755C508.688 352.283 508.568 352.615 508.393 352.909C508.217 353.202 508 353.452 507.739 353.658C507.479 353.862 507.186 354.017 506.862 354.123C506.54 354.23 506.196 354.283 505.829 354.283C505.208 354.283 504.657 354.132 504.174 353.828C503.691 353.525 503.311 353.095 503.034 352.536C502.757 351.977 502.618 351.314 502.618 350.547C502.618 349.78 502.757 349.117 503.034 348.559C503.311 348 503.691 347.569 504.174 347.266C504.657 346.963 505.208 346.811 505.829 346.811C506.196 346.811 506.54 346.865 506.862 346.971C507.186 347.078 507.479 347.234 507.739 347.44C508 347.644 508.217 347.892 508.393 348.186C508.568 348.477 508.688 348.81 508.755 349.184ZM510.38 347.692V346.911H515.835V347.692H513.548V354.184H512.667V347.692H510.38Z" fill="#615E83"/>
<path d="M538.07 346.911V354.184H537.217L533.254 348.473H533.183V354.184H532.303V346.911H533.155L537.132 352.635H537.203V346.911H538.07ZM546.568 350.547C546.568 351.314 546.43 351.977 546.153 352.536C545.876 353.095 545.496 353.525 545.013 353.828C544.53 354.132 543.978 354.283 543.358 354.283C542.738 354.283 542.186 354.132 541.703 353.828C541.22 353.525 540.84 353.095 540.563 352.536C540.286 351.977 540.148 351.314 540.148 350.547C540.148 349.78 540.286 349.117 540.563 348.559C540.84 348 541.22 347.569 541.703 347.266C542.186 346.963 542.738 346.811 543.358 346.811C543.978 346.811 544.53 346.963 545.013 347.266C545.496 347.569 545.876 348 546.153 348.559C546.43 349.117 546.568 349.78 546.568 350.547ZM545.716 350.547C545.716 349.917 545.611 349.386 545.4 348.953C545.192 348.52 544.909 348.192 544.551 347.969C544.196 347.747 543.798 347.635 543.358 347.635C542.918 347.635 542.519 347.747 542.161 347.969C541.806 348.192 541.523 348.52 541.313 348.953C541.104 349.386 541 349.917 541 350.547C541 351.177 541.104 351.708 541.313 352.142C541.523 352.575 541.806 352.903 542.161 353.125C542.519 353.348 542.918 353.459 543.358 353.459C543.798 353.459 544.196 353.348 544.551 353.125C544.909 352.903 545.192 352.575 545.4 352.142C545.611 351.708 545.716 351.177 545.716 350.547ZM548.606 346.911L550.765 353.033H550.85L553.009 346.911H553.932L551.262 354.184H550.353L547.682 346.911H548.606Z" fill="#615E83"/>
<path d="M570.554 354.202H568.309V346.93H570.653C571.359 346.93 571.962 347.075 572.464 347.366C572.966 347.655 573.351 348.071 573.618 348.613C573.886 349.153 574.02 349.799 574.02 350.552C574.02 351.309 573.885 351.962 573.615 352.508C573.345 353.053 572.952 353.472 572.436 353.765C571.92 354.057 571.292 354.202 570.554 354.202ZM569.19 353.421H570.497C571.098 353.421 571.597 353.305 571.992 353.073C572.387 352.841 572.682 352.511 572.876 352.082C573.07 351.654 573.167 351.144 573.167 350.552C573.167 349.965 573.072 349.459 572.88 349.035C572.688 348.609 572.402 348.283 572.02 348.055C571.639 347.826 571.165 347.711 570.596 347.711H569.19V353.421ZM576.097 354.202V346.93H580.486V347.711H576.978V350.168H580.259V350.949H576.978V353.421H580.543V354.202H576.097ZM588.526 349.202H587.645C587.593 348.949 587.502 348.726 587.372 348.535C587.244 348.343 587.088 348.182 586.903 348.052C586.721 347.919 586.518 347.82 586.296 347.753C586.073 347.687 585.841 347.654 585.6 347.654C585.159 347.654 584.76 347.765 584.403 347.988C584.048 348.21 583.765 348.538 583.554 348.971C583.346 349.405 583.242 349.936 583.242 350.566C583.242 351.196 583.346 351.727 583.554 352.16C583.765 352.594 584.048 352.921 584.403 353.144C584.76 353.367 585.159 353.478 585.6 353.478C585.841 353.478 586.073 353.445 586.296 353.378C586.518 353.312 586.721 353.214 586.903 353.084C587.088 352.951 587.244 352.789 587.372 352.597C587.502 352.403 587.593 352.18 587.645 351.93H588.526C588.46 352.301 588.339 352.634 588.164 352.927C587.988 353.221 587.771 353.471 587.51 353.677C587.25 353.88 586.957 354.035 586.633 354.142C586.311 354.248 585.967 354.302 585.6 354.302C584.979 354.302 584.428 354.15 583.945 353.847C583.462 353.544 583.082 353.113 582.805 352.555C582.528 351.996 582.389 351.333 582.389 350.566C582.389 349.799 582.528 349.136 582.805 348.577C583.082 348.019 583.462 347.588 583.945 347.285C584.428 346.982 584.979 346.83 585.6 346.83C585.967 346.83 586.311 346.883 586.633 346.99C586.957 347.096 587.25 347.253 587.51 347.459C587.771 347.662 587.988 347.911 588.164 348.204C588.339 348.496 588.46 348.828 588.526 349.202Z" fill="#615E83"/>
<path d="M609.232 335.164C608.697 335.164 608.242 335.019 607.865 334.728C607.489 334.434 607.201 334.009 607.002 333.453C606.803 332.894 606.704 332.219 606.704 331.429C606.704 330.643 606.803 329.971 607.002 329.415C607.204 328.856 607.492 328.43 607.869 328.137C608.248 327.841 608.702 327.693 609.232 327.693C609.763 327.693 610.216 327.841 610.593 328.137C610.971 328.43 611.26 328.856 611.459 329.415C611.66 329.971 611.761 330.643 611.761 331.429C611.761 332.219 611.661 332.894 611.463 333.453C611.264 334.009 610.976 334.434 610.6 334.728C610.223 335.019 609.767 335.164 609.232 335.164ZM609.232 334.383C609.763 334.383 610.175 334.127 610.468 333.616C610.762 333.105 610.909 332.376 610.909 331.429C610.909 330.799 610.841 330.263 610.706 329.82C610.574 329.377 610.382 329.04 610.131 328.808C609.882 328.576 609.583 328.46 609.232 328.46C608.707 328.46 608.296 328.719 608 329.238C607.704 329.754 607.556 330.484 607.556 331.429C607.556 332.058 607.623 332.593 607.755 333.034C607.888 333.474 608.078 333.809 608.327 334.039C608.578 334.268 608.88 334.383 609.232 334.383Z" fill="#615E83"/>
<path d="M605.579 294.792V302.065H604.699V295.716H604.656L602.88 296.894V296L604.699 294.792H605.579ZM608.466 300.076L608.452 299.039H608.623L611.009 296.61H612.046L609.503 299.181H609.432L608.466 300.076ZM607.685 302.065V294.792H608.523V302.065H607.685ZM611.151 302.065L609.02 299.366L609.617 298.784L612.216 302.065H611.151Z" fill="#615E83"/>
<path d="M603.616 275.065V274.426L606.017 271.798C606.298 271.49 606.53 271.223 606.713 270.995C606.895 270.766 607.03 270.55 607.118 270.349C607.208 270.145 607.252 269.932 607.252 269.71C607.252 269.454 607.191 269.233 607.068 269.046C606.947 268.859 606.781 268.714 606.571 268.613C606.36 268.511 606.123 268.46 605.86 268.46C605.581 268.46 605.337 268.518 605.129 268.634C604.923 268.747 604.763 268.907 604.65 269.113C604.538 269.319 604.483 269.561 604.483 269.838H603.645C603.645 269.412 603.743 269.037 603.939 268.716C604.136 268.394 604.403 268.143 604.742 267.963C605.083 267.783 605.465 267.693 605.889 267.693C606.315 267.693 606.693 267.783 607.022 267.963C607.351 268.143 607.609 268.385 607.796 268.691C607.983 268.996 608.076 269.336 608.076 269.71C608.076 269.977 608.028 270.239 607.931 270.495C607.836 270.748 607.67 271.031 607.434 271.343C607.199 271.653 606.874 272.032 606.457 272.48L604.824 274.227V274.284H608.204V275.065H603.616ZM610.466 273.076L610.452 272.039H610.623L613.009 269.61H614.046L611.503 272.181H611.432L610.466 273.076ZM609.685 275.065V267.792H610.523V275.065H609.685ZM613.151 275.065L611.02 272.366L611.617 271.784L614.216 275.065H613.151Z" fill="#615E83"/>
<path d="M605.761 248.164C605.292 248.164 604.874 248.084 604.507 247.923C604.143 247.762 603.853 247.538 603.637 247.252C603.424 246.963 603.308 246.628 603.289 246.247H604.184C604.203 246.481 604.284 246.684 604.426 246.854C604.568 247.022 604.754 247.152 604.983 247.245C605.213 247.337 605.467 247.383 605.747 247.383C606.059 247.383 606.336 247.329 606.578 247.22C606.819 247.111 607.009 246.959 607.146 246.765C607.283 246.571 607.352 246.346 607.352 246.091C607.352 245.823 607.286 245.587 607.153 245.384C607.02 245.178 606.826 245.017 606.571 244.901C606.315 244.785 606.002 244.727 605.633 244.727H605.051V243.946H605.633C605.922 243.946 606.175 243.894 606.393 243.789C606.613 243.685 606.785 243.538 606.908 243.349C607.033 243.16 607.096 242.937 607.096 242.681C607.096 242.435 607.042 242.221 606.933 242.039C606.824 241.856 606.67 241.714 606.471 241.613C606.275 241.511 606.043 241.46 605.775 241.46C605.524 241.46 605.288 241.506 605.065 241.598C604.845 241.688 604.665 241.82 604.525 241.992C604.386 242.163 604.31 242.369 604.298 242.61H603.446C603.46 242.229 603.575 241.895 603.79 241.609C604.006 241.32 604.287 241.095 604.635 240.934C604.986 240.773 605.37 240.693 605.789 240.693C606.239 240.693 606.625 240.784 606.947 240.966C607.269 241.146 607.516 241.384 607.689 241.68C607.862 241.976 607.949 242.296 607.949 242.639C607.949 243.048 607.841 243.398 607.625 243.686C607.412 243.975 607.122 244.175 606.755 244.287V244.343C607.215 244.419 607.573 244.614 607.831 244.929C608.089 245.242 608.218 245.629 608.218 246.091C608.218 246.486 608.111 246.841 607.895 247.156C607.682 247.468 607.391 247.715 607.022 247.894C606.652 248.074 606.232 248.164 605.761 248.164ZM610.466 246.076L610.452 245.039H610.623L613.009 242.61H614.046L611.503 245.181H611.432L610.466 246.076ZM609.685 248.065V240.792H610.523V248.065H609.685ZM613.151 248.065L611.02 245.366L611.617 244.784L614.216 248.065H613.151Z" fill="#615E83"/>
<path d="M603.084 218.573V217.849L606.28 212.792H606.806V213.914H606.451L604.036 217.735V217.792H608.34V218.573H603.084ZM606.508 220.065V218.353V218.016V212.792H607.346V220.065H606.508ZM610.466 218.076L610.452 217.039H610.623L613.009 214.61H614.046L611.503 217.181H611.432L610.466 218.076ZM609.685 220.065V212.792H610.523V220.065H609.685ZM613.151 220.065L611.02 217.366L611.617 216.784L614.216 220.065H613.151Z" fill="#615E83"/>
<path d="M605.86 192.164C605.443 192.164 605.068 192.082 604.734 191.916C604.4 191.75 604.133 191.523 603.931 191.234C603.73 190.945 603.62 190.616 603.601 190.247H604.453C604.486 190.576 604.636 190.848 604.901 191.064C605.168 191.277 605.488 191.383 605.86 191.383C606.158 191.383 606.423 191.313 606.655 191.174C606.889 191.034 607.073 190.842 607.205 190.598C607.34 190.352 607.408 190.074 607.408 189.764C607.408 189.447 607.338 189.164 607.198 188.915C607.061 188.664 606.872 188.466 606.63 188.322C606.389 188.178 606.113 188.104 605.803 188.102C605.58 188.1 605.352 188.134 605.117 188.205C604.883 188.274 604.69 188.362 604.539 188.471L603.715 188.372L604.155 184.792H607.933V185.573H604.894L604.638 187.718H604.681C604.83 187.6 605.017 187.502 605.242 187.424C605.467 187.345 605.701 187.306 605.945 187.306C606.39 187.306 606.786 187.413 607.134 187.626C607.485 187.837 607.759 188.126 607.958 188.492C608.16 188.859 608.26 189.278 608.26 189.75C608.26 190.214 608.156 190.628 607.948 190.992C607.742 191.355 607.458 191.641 607.095 191.852C606.733 192.06 606.321 192.164 605.86 192.164ZM610.466 190.076L610.452 189.039H610.623L613.009 186.61H614.046L611.503 189.181H611.432L610.466 190.076ZM609.685 192.065V184.792H610.523V192.065H609.685ZM613.151 192.065L611.02 189.366L611.617 188.784L614.216 192.065H613.151Z" fill="#615E83"/>
<line x1="159.213" y1="189.281" x2="580.906" y2="189.281" stroke="#F9FBFF" stroke-linecap="round"/>
<line x1="159.213" y1="216.867" x2="580.906" y2="216.867" stroke="#F9FBFF" stroke-linecap="round"/>
<line x1="159.213" y1="244.453" x2="580.906" y2="244.453" stroke="#F9FBFF" stroke-linecap="round"/>
<line x1="159.213" y1="272.04" x2="580.906" y2="272.04" stroke="#F9FBFF" stroke-linecap="round"/>
<line x1="159.213" y1="299.626" x2="580.906" y2="299.626" stroke="#F9FBFF" stroke-linecap="round"/>
<line x1="159.213" y1="330.189" x2="580.906" y2="330.189" stroke="#F9FBFF" stroke-linecap="round"/>
<g style="mix-blend-mode:multiply" opacity="0.33">
<path d="M182.941 246.76C175.912 257.788 164.194 261.002 159.214 261.231V330.328H581.406V225.087C575.424 227.11 561.308 236.217 552.704 256.455C541.949 281.752 525.741 265.695 519.227 260.848C512.713 256 501.201 254.485 494.081 255.243C486.962 256 475.752 257.666 470.45 248.275C465.148 238.883 459.796 232.776 445.305 235.096C432.429 235.55 426.824 235.399 420.765 230.854C414.706 226.31 396.679 215.706 383.804 228.734C370.928 241.761 357.598 247.669 343.661 230.097C329.725 212.525 314.88 214.646 309.124 220.402C303.368 226.159 299.577 243.705 285.706 248.862C273.918 251.205 267.031 255.058 254.591 267.967C238.534 284.63 228.839 269.936 221.417 252.062C213.994 234.187 191.727 232.975 182.941 246.76Z" fill="url(#paint0_linear_166_3851)"/>
</g>
<path d="M159.902 261.113C164.867 260.884 176.547 257.67 183.553 246.642C192.311 232.857 214.507 234.069 221.905 251.944C229.304 269.819 238.967 284.512 254.973 267.849C270.978 251.186 272.436 253.306 286.228 249.066C300.153 244.785 300.473 230.384 310.383 220.441C316.121 214.685 329.865 212.408 343.756 229.979C357.648 247.551 370.935 241.643 383.77 228.616C396.604 215.589 414.572 226.192 420.612 230.737C426.652 235.281 433.873 236.691 445.073 234.978C459.026 232.843 464.853 238.765 470.137 248.157C475.422 257.549 486.596 255.882 493.692 255.125C500.789 254.368 512.264 255.882 518.757 260.73C525.25 265.577 541.406 281.634 552.127 256.337C560.703 236.099 574.773 226.993 580.736 224.969" stroke="#4685FF" stroke-width="2" stroke-linecap="round" stroke-linejoin="round"/>
<line x1="447.246" y1="234.228" x2="447.246" y2="330.189" stroke="#4685FF" stroke-linecap="round"/>
<g filter="url(#filter2_d_166_3851)">
<circle cx="447.026" cy="233.728" r="4.34346" fill="#4685FF"/>
<circle cx="447.026" cy="233.728" r="3.34346" stroke="white" stroke-width="2"/>
</g>
<path fill-rule="evenodd" clip-rule="evenodd" d="M437.831 235.205C438.7 234.412 438.7 233.044 437.831 232.251L437.231 231.703C436.669 231.189 435.957 231.075 435.334 231.255L435.334 228.012C435.334 223.593 431.752 220.012 427.334 220.012L398.267 220.012C393.849 220.012 390.267 223.593 390.267 228.012L390.267 239.444C390.267 243.863 393.849 247.444 398.267 247.444L427.334 247.444C431.752 247.444 435.334 243.863 435.334 239.444L435.334 236.201C435.957 236.381 436.669 236.267 437.231 235.753L437.831 235.205Z" fill="#15284C"/>
<path d="M406.265 241.08C405.875 241.08 405.526 241.012 405.219 240.878C404.915 240.743 404.673 240.557 404.495 240.318C404.319 240.078 404.224 239.799 404.211 239.483H405.103C405.114 239.655 405.172 239.805 405.276 239.932C405.382 240.057 405.521 240.153 405.691 240.222C405.861 240.29 406.051 240.324 406.259 240.324C406.488 240.324 406.691 240.284 406.867 240.205C407.045 240.125 407.184 240.014 407.285 239.872C407.385 239.728 407.435 239.562 407.435 239.375C407.435 239.18 407.385 239.009 407.285 238.861C407.186 238.711 407.041 238.594 406.85 238.509C406.661 238.423 406.432 238.381 406.163 238.381H405.671V237.665H406.163C406.379 237.665 406.568 237.626 406.731 237.548C406.896 237.471 407.024 237.363 407.117 237.224C407.21 237.084 407.256 236.92 407.256 236.733C407.256 236.553 407.216 236.397 407.134 236.264C407.055 236.13 406.941 236.025 406.793 235.949C406.647 235.873 406.475 235.835 406.276 235.835C406.087 235.835 405.91 235.87 405.745 235.94C405.582 236.009 405.45 236.107 405.347 236.236C405.245 236.363 405.19 236.515 405.183 236.693H404.333C404.343 236.379 404.435 236.102 404.611 235.864C404.79 235.625 405.024 235.438 405.316 235.304C405.608 235.17 405.932 235.102 406.288 235.102C406.661 235.102 406.983 235.175 407.254 235.321C407.526 235.465 407.736 235.657 407.884 235.898C408.034 236.138 408.108 236.402 408.106 236.688C408.108 237.013 408.017 237.29 407.833 237.517C407.651 237.744 407.409 237.897 407.106 237.974V238.02C407.492 238.079 407.791 238.232 408.004 238.48C408.218 238.728 408.324 239.036 408.322 239.403C408.324 239.723 408.235 240.01 408.055 240.264C407.877 240.518 407.633 240.718 407.325 240.864C407.016 241.008 406.663 241.08 406.265 241.08ZM411.421 241.08C411.031 241.08 410.683 241.012 410.376 240.878C410.071 240.743 409.829 240.557 409.651 240.318C409.475 240.078 409.38 239.799 409.367 239.483H410.259C410.271 239.655 410.328 239.805 410.433 239.932C410.539 240.057 410.677 240.153 410.847 240.222C411.018 240.29 411.207 240.324 411.415 240.324C411.645 240.324 411.847 240.284 412.023 240.205C412.201 240.125 412.341 240.014 412.441 239.872C412.541 239.728 412.592 239.562 412.592 239.375C412.592 239.18 412.541 239.009 412.441 238.861C412.343 238.711 412.198 238.594 412.006 238.509C411.817 238.423 411.588 238.381 411.319 238.381H410.827V237.665H411.319C411.535 237.665 411.724 237.626 411.887 237.548C412.052 237.471 412.181 237.363 412.273 237.224C412.366 237.084 412.413 236.92 412.413 236.733C412.413 236.553 412.372 236.397 412.29 236.264C412.211 236.13 412.097 236.025 411.95 235.949C411.804 235.873 411.631 235.835 411.433 235.835C411.243 235.835 411.066 235.87 410.901 235.94C410.738 236.009 410.606 236.107 410.504 236.236C410.401 236.363 410.346 236.515 410.339 236.693H409.489C409.499 236.379 409.592 236.102 409.768 235.864C409.946 235.625 410.181 235.438 410.472 235.304C410.764 235.17 411.088 235.102 411.444 235.102C411.817 235.102 412.139 235.175 412.41 235.321C412.683 235.465 412.893 235.657 413.04 235.898C413.19 236.138 413.264 236.402 413.262 236.688C413.264 237.013 413.173 237.29 412.989 237.517C412.808 237.744 412.565 237.897 412.262 237.974V238.02C412.648 238.079 412.948 238.232 413.16 238.48C413.374 238.728 413.48 239.036 413.478 239.403C413.48 239.723 413.391 240.01 413.211 240.264C413.033 240.518 412.79 240.718 412.481 240.864C412.172 241.008 411.819 241.08 411.421 241.08ZM416.577 241.097C416.129 241.095 415.745 240.976 415.427 240.741C415.109 240.507 414.865 240.165 414.697 239.716C414.528 239.267 414.444 238.726 414.444 238.094C414.444 237.463 414.528 236.924 414.697 236.477C414.867 236.03 415.111 235.689 415.43 235.455C415.75 235.22 416.132 235.102 416.577 235.102C417.022 235.102 417.404 235.221 417.722 235.457C418.04 235.692 418.284 236.033 418.452 236.48C418.623 236.925 418.708 237.463 418.708 238.094C418.708 238.728 418.624 239.27 418.455 239.719C418.287 240.166 418.043 240.508 417.725 240.744C417.407 240.979 417.024 241.097 416.577 241.097ZM416.577 240.338C416.971 240.338 417.279 240.146 417.501 239.761C417.724 239.377 417.836 238.821 417.836 238.094C417.836 237.611 417.785 237.203 417.683 236.869C417.582 236.534 417.437 236.28 417.248 236.108C417.06 235.934 416.837 235.847 416.577 235.847C416.185 235.847 415.878 236.04 415.654 236.426C415.431 236.812 415.318 237.368 415.316 238.094C415.316 238.579 415.366 238.989 415.467 239.324C415.569 239.657 415.714 239.91 415.901 240.082C416.089 240.253 416.314 240.338 416.577 240.338ZM421.741 241.097C421.293 241.095 420.909 240.976 420.591 240.741C420.273 240.507 420.029 240.165 419.861 239.716C419.692 239.267 419.608 238.726 419.608 238.094C419.608 237.463 419.692 236.924 419.861 236.477C420.031 236.03 420.276 235.689 420.594 235.455C420.914 235.22 421.296 235.102 421.741 235.102C422.187 235.102 422.568 235.221 422.886 235.457C423.205 235.692 423.448 236.033 423.616 236.48C423.787 236.925 423.872 237.463 423.872 238.094C423.872 238.728 423.788 239.27 423.619 239.719C423.451 240.166 423.207 240.508 422.889 240.744C422.571 240.979 422.188 241.097 421.741 241.097ZM421.741 240.338C422.135 240.338 422.443 240.146 422.665 239.761C422.888 239.377 423 238.821 423 238.094C423 237.611 422.949 237.203 422.847 236.869C422.746 236.534 422.601 236.28 422.412 236.108C422.224 235.934 422.001 235.847 421.741 235.847C421.349 235.847 421.042 236.04 420.818 236.426C420.595 236.812 420.482 237.368 420.48 238.094C420.48 238.579 420.53 238.989 420.631 239.324C420.733 239.657 420.878 239.91 421.065 240.082C421.253 240.253 421.478 240.338 421.741 240.338Z" fill="white"/>
<path d="M398.522 230V225.636H399.996C400.338 225.636 400.618 225.698 400.835 225.822C401.054 225.944 401.216 226.109 401.321 226.318C401.426 226.527 401.479 226.76 401.479 227.017C401.479 227.274 401.426 227.508 401.321 227.718C401.218 227.928 401.057 228.096 400.84 228.221C400.622 228.344 400.344 228.406 400.005 228.406H398.948V227.938H399.987C400.222 227.938 400.41 227.897 400.552 227.816C400.694 227.735 400.797 227.626 400.861 227.488C400.926 227.349 400.959 227.192 400.959 227.017C400.959 226.842 400.926 226.686 400.861 226.548C400.797 226.411 400.693 226.303 400.55 226.224C400.407 226.145 400.216 226.105 399.979 226.105H399.05V230H398.522ZM403.225 230.077C403.018 230.077 402.829 230.038 402.66 229.96C402.491 229.88 402.357 229.766 402.258 229.616C402.158 229.466 402.109 229.284 402.109 229.071C402.109 228.884 402.145 228.732 402.219 228.615C402.293 228.497 402.392 228.405 402.516 228.338C402.639 228.271 402.775 228.222 402.925 228.189C403.075 228.155 403.226 228.128 403.378 228.108C403.577 228.082 403.739 228.063 403.862 228.05C403.987 228.036 404.078 228.013 404.135 227.98C404.193 227.947 404.222 227.891 404.222 227.81V227.793C404.222 227.582 404.165 227.419 404.05 227.303C403.936 227.186 403.763 227.128 403.532 227.128C403.292 227.128 403.104 227.18 402.967 227.286C402.831 227.391 402.735 227.503 402.68 227.622L402.202 227.452C402.288 227.253 402.401 227.098 402.543 226.987C402.687 226.875 402.843 226.797 403.012 226.753C403.182 226.707 403.35 226.685 403.515 226.685C403.62 226.685 403.741 226.697 403.877 226.723C404.015 226.747 404.148 226.798 404.275 226.874C404.405 226.951 404.512 227.067 404.597 227.222C404.682 227.376 404.725 227.584 404.725 227.844V230H404.222V229.557H404.197C404.163 229.628 404.106 229.704 404.026 229.785C403.947 229.866 403.841 229.935 403.709 229.991C403.577 230.048 403.415 230.077 403.225 230.077ZM403.302 229.625C403.501 229.625 403.668 229.586 403.805 229.508C403.942 229.43 404.046 229.329 404.116 229.205C404.187 229.082 404.222 228.952 404.222 228.815V228.355C404.201 228.381 404.154 228.404 404.082 228.425C404.011 228.445 403.928 228.463 403.834 228.479C403.742 228.493 403.652 228.506 403.564 228.517C403.477 228.527 403.407 228.536 403.353 228.543C403.222 228.56 403.1 228.587 402.986 228.626C402.874 228.663 402.783 228.719 402.714 228.794C402.645 228.868 402.611 228.969 402.611 229.097C402.611 229.271 402.676 229.403 402.805 229.493C402.936 229.581 403.101 229.625 403.302 229.625ZM406.964 231.295C406.721 231.295 406.512 231.264 406.337 231.202C406.163 231.141 406.017 231.06 405.901 230.959C405.786 230.859 405.694 230.753 405.626 230.639L406.026 230.358C406.072 230.418 406.129 230.486 406.199 230.562C406.269 230.641 406.364 230.708 406.484 230.765C406.607 230.823 406.766 230.852 406.964 230.852C407.228 230.852 407.446 230.788 407.618 230.661C407.79 230.533 407.876 230.332 407.876 230.06V229.395H407.833C407.796 229.455 407.744 229.528 407.675 229.616C407.609 229.703 407.512 229.781 407.386 229.849C407.261 229.915 407.092 229.949 406.879 229.949C406.614 229.949 406.377 229.886 406.167 229.761C405.958 229.636 405.793 229.455 405.671 229.216C405.55 228.977 405.489 228.687 405.489 228.347C405.489 228.011 405.548 227.719 405.666 227.471C405.784 227.221 405.948 227.028 406.158 226.891C406.369 226.754 406.612 226.685 406.887 226.685C407.1 226.685 407.269 226.72 407.394 226.791C407.521 226.861 407.617 226.94 407.684 227.03C407.752 227.118 407.805 227.19 407.842 227.247H407.893V226.727H408.379V230.094C408.379 230.375 408.315 230.604 408.187 230.78C408.06 230.957 407.89 231.087 407.675 231.17C407.462 231.254 407.225 231.295 406.964 231.295ZM406.947 229.497C407.149 229.497 407.319 229.451 407.458 229.359C407.597 229.266 407.703 229.134 407.776 228.96C407.848 228.787 407.884 228.58 407.884 228.338C407.884 228.102 407.849 227.894 407.778 227.714C407.707 227.533 407.602 227.392 407.462 227.29C407.323 227.187 407.151 227.136 406.947 227.136C406.734 227.136 406.556 227.19 406.414 227.298C406.274 227.406 406.168 227.551 406.097 227.733C406.027 227.915 405.992 228.116 405.992 228.338C405.992 228.565 406.028 228.766 406.099 228.941C406.171 229.114 406.278 229.251 406.418 229.35C406.56 229.448 406.737 229.497 406.947 229.497ZM410.671 230.068C410.356 230.068 410.084 229.999 409.855 229.859C409.628 229.719 409.452 229.523 409.329 229.271C409.207 229.018 409.146 228.724 409.146 228.389C409.146 228.054 409.207 227.759 409.329 227.503C409.452 227.246 409.624 227.045 409.845 226.902C410.066 226.757 410.325 226.685 410.62 226.685C410.791 226.685 410.959 226.713 411.125 226.77C411.291 226.827 411.443 226.919 411.579 227.047C411.715 227.173 411.824 227.341 411.905 227.55C411.986 227.759 412.026 228.016 412.026 228.321V228.534H409.504V228.099H411.515C411.515 227.915 411.478 227.75 411.404 227.605C411.332 227.46 411.228 227.346 411.093 227.262C410.96 227.178 410.802 227.136 410.62 227.136C410.42 227.136 410.247 227.186 410.1 227.286C409.955 227.384 409.844 227.511 409.766 227.669C409.688 227.827 409.649 227.996 409.649 228.176V228.466C409.649 228.713 409.691 228.923 409.776 229.094C409.863 229.265 409.983 229.395 410.136 229.484C410.29 229.572 410.468 229.616 410.671 229.616C410.803 229.616 410.923 229.598 411.029 229.561C411.137 229.523 411.23 229.466 411.308 229.391C411.386 229.314 411.447 229.219 411.489 229.105L411.975 229.241C411.924 229.406 411.838 229.551 411.717 229.676C411.597 229.8 411.448 229.896 411.27 229.966C411.092 230.034 410.893 230.068 410.671 230.068ZM412.734 225.636L414.029 229.31H414.08L415.376 225.636H415.93L414.327 230H413.782L412.18 225.636H412.734ZM416.541 230V226.727H417.044V230H416.541ZM416.797 226.182C416.699 226.182 416.614 226.148 416.543 226.082C416.474 226.015 416.439 225.935 416.439 225.841C416.439 225.747 416.474 225.667 416.543 225.6C416.614 225.533 416.699 225.5 416.797 225.5C416.895 225.5 416.979 225.533 417.048 225.6C417.119 225.667 417.155 225.747 417.155 225.841C417.155 225.935 417.119 226.015 417.048 226.082C416.979 226.148 416.895 226.182 416.797 226.182ZM419.337 230.068C419.022 230.068 418.75 229.999 418.521 229.859C418.294 229.719 418.119 229.523 417.995 229.271C417.873 229.018 417.812 228.724 417.812 228.389C417.812 228.054 417.873 227.759 417.995 227.503C418.119 227.246 418.29 227.045 418.511 226.902C418.732 226.757 418.991 226.685 419.286 226.685C419.457 226.685 419.625 226.713 419.791 226.77C419.957 226.827 420.109 226.919 420.245 227.047C420.381 227.173 420.49 227.341 420.571 227.55C420.652 227.759 420.692 228.016 420.692 228.321V228.534H418.17V228.099H420.181C420.181 227.915 420.144 227.75 420.07 227.605C419.998 227.46 419.894 227.346 419.759 227.262C419.626 227.178 419.468 227.136 419.286 227.136C419.086 227.136 418.913 227.186 418.766 227.286C418.621 227.384 418.51 227.511 418.432 227.669C418.354 227.827 418.315 227.996 418.315 228.176V228.466C418.315 228.713 418.357 228.923 418.442 229.094C418.529 229.265 418.649 229.395 418.802 229.484C418.956 229.572 419.134 229.616 419.337 229.616C419.469 229.616 419.589 229.598 419.695 229.561C419.803 229.523 419.896 229.466 419.974 229.391C420.052 229.314 420.113 229.219 420.155 229.105L420.641 229.241C420.59 229.406 420.504 229.551 420.383 229.676C420.263 229.8 420.114 229.896 419.936 229.966C419.758 230.034 419.559 230.068 419.337 230.068ZM422.199 230L421.202 226.727H421.73L422.437 229.233H422.471L423.17 226.727H423.707L424.398 229.224H424.432L425.139 226.727H425.668L424.67 230H424.176L423.46 227.486H423.409L422.693 230H422.199ZM428.65 227.46L428.199 227.588C428.17 227.513 428.128 227.44 428.073 227.369C428.019 227.296 427.945 227.237 427.851 227.19C427.758 227.143 427.638 227.119 427.491 227.119C427.291 227.119 427.124 227.165 426.991 227.258C426.859 227.349 426.793 227.464 426.793 227.605C426.793 227.73 426.838 227.829 426.929 227.901C427.02 227.974 427.162 228.034 427.355 228.082L427.841 228.202C428.133 228.273 428.351 228.381 428.495 228.528C428.638 228.673 428.71 228.859 428.71 229.088C428.71 229.276 428.656 229.443 428.548 229.591C428.442 229.739 428.293 229.855 428.101 229.94C427.909 230.026 427.686 230.068 427.432 230.068C427.098 230.068 426.822 229.996 426.603 229.851C426.384 229.706 426.246 229.494 426.187 229.216L426.665 229.097C426.71 229.273 426.796 229.405 426.922 229.493C427.05 229.581 427.217 229.625 427.423 229.625C427.658 229.625 427.844 229.575 427.981 229.476C428.121 229.375 428.19 229.254 428.19 229.114C428.19 229 428.15 228.905 428.071 228.828C427.991 228.75 427.869 228.692 427.704 228.653L427.159 228.526C426.859 228.455 426.639 228.344 426.498 228.195C426.359 228.045 426.29 227.857 426.29 227.631C426.29 227.446 426.342 227.283 426.445 227.141C426.55 226.999 426.693 226.887 426.873 226.806C427.055 226.725 427.261 226.685 427.491 226.685C427.815 226.685 428.069 226.756 428.254 226.898C428.44 227.04 428.572 227.227 428.65 227.46Z" fill="#E5E5EF"/>
<path d="M252.326 164.727L254.485 170.849H254.57L256.729 164.727H257.652L254.982 172H254.073L251.402 164.727H252.326ZM263.362 166.545C263.32 166.186 263.147 165.906 262.844 165.707C262.541 165.509 262.169 165.409 261.729 165.409C261.407 165.409 261.125 165.461 260.884 165.565C260.645 165.67 260.458 165.813 260.323 165.995C260.19 166.177 260.124 166.384 260.124 166.616C260.124 166.811 260.17 166.978 260.262 167.117C260.357 167.254 260.478 167.369 260.625 167.462C260.771 167.552 260.925 167.626 261.086 167.685C261.247 167.742 261.395 167.788 261.53 167.824L262.269 168.023C262.458 168.072 262.669 168.141 262.901 168.229C263.135 168.316 263.359 168.436 263.572 168.587C263.787 168.737 263.965 168.928 264.105 169.163C264.244 169.397 264.314 169.685 264.314 170.026C264.314 170.419 264.211 170.774 264.005 171.091C263.802 171.408 263.503 171.66 263.11 171.847C262.72 172.034 262.245 172.128 261.686 172.128C261.165 172.128 260.714 172.044 260.333 171.876C259.955 171.708 259.656 171.473 259.438 171.173C259.223 170.872 259.101 170.523 259.073 170.125H259.982C260.005 170.4 260.098 170.627 260.259 170.807C260.422 170.984 260.628 171.117 260.877 171.205C261.128 171.29 261.397 171.332 261.686 171.332C262.022 171.332 262.324 171.278 262.592 171.169C262.859 171.058 263.071 170.904 263.227 170.707C263.384 170.509 263.462 170.277 263.462 170.011C263.462 169.77 263.394 169.573 263.259 169.422C263.125 169.27 262.947 169.147 262.727 169.053C262.507 168.958 262.269 168.875 262.013 168.804L261.118 168.548C260.55 168.385 260.1 168.152 259.769 167.849C259.437 167.546 259.272 167.149 259.272 166.659C259.272 166.252 259.382 165.897 259.602 165.594C259.824 165.288 260.123 165.052 260.497 164.884C260.873 164.713 261.293 164.628 261.757 164.628C262.226 164.628 262.643 164.712 263.007 164.88C263.372 165.046 263.661 165.273 263.874 165.562C264.089 165.851 264.203 166.179 264.215 166.545H263.362ZM269.775 172V164.727H270.655V171.219H274.036V172H269.775ZM276.757 172H275.834L278.504 164.727H279.413L282.084 172H281.16L278.987 165.878H278.93L276.757 172ZM277.098 169.159H280.819V169.94H277.098V169.159ZM287.794 166.545C287.751 166.186 287.578 165.906 287.275 165.707C286.972 165.509 286.601 165.409 286.16 165.409C285.838 165.409 285.556 165.461 285.315 165.565C285.076 165.67 284.889 165.813 284.754 165.995C284.621 166.177 284.555 166.384 284.555 166.616C284.555 166.811 284.601 166.978 284.694 167.117C284.788 167.254 284.909 167.369 285.056 167.462C285.203 167.552 285.356 167.626 285.517 167.685C285.678 167.742 285.826 167.788 285.961 167.824L286.7 168.023C286.889 168.072 287.1 168.141 287.332 168.229C287.566 168.316 287.79 168.436 288.003 168.587C288.219 168.737 288.396 168.928 288.536 169.163C288.676 169.397 288.745 169.685 288.745 170.026C288.745 170.419 288.642 170.774 288.436 171.091C288.233 171.408 287.935 171.66 287.542 171.847C287.151 172.034 286.676 172.128 286.118 172.128C285.597 172.128 285.146 172.044 284.765 171.876C284.386 171.708 284.087 171.473 283.87 171.173C283.654 170.872 283.532 170.523 283.504 170.125H284.413C284.437 170.4 284.529 170.627 284.69 170.807C284.853 170.984 285.059 171.117 285.308 171.205C285.559 171.29 285.829 171.332 286.118 171.332C286.454 171.332 286.756 171.278 287.023 171.169C287.291 171.058 287.502 170.904 287.659 170.707C287.815 170.509 287.893 170.277 287.893 170.011C287.893 169.77 287.826 169.573 287.691 169.422C287.556 169.27 287.378 169.147 287.158 169.053C286.938 168.958 286.7 168.875 286.444 168.804L285.549 168.548C284.981 168.385 284.531 168.152 284.2 167.849C283.868 167.546 283.703 167.149 283.703 166.659C283.703 166.252 283.813 165.897 284.033 165.594C284.256 165.288 284.554 165.052 284.928 164.884C285.304 164.713 285.725 164.628 286.189 164.628C286.657 164.628 287.074 164.712 287.439 164.88C287.803 165.046 288.092 165.273 288.305 165.562C288.52 165.851 288.634 166.179 288.646 166.545H287.794ZM290.396 165.509V164.727H295.85V165.509H293.563V172H292.683V165.509H290.396ZM300.597 164.727H301.605L303.622 168.122H303.708L305.725 164.727H306.733L304.105 169.003V172H303.225V169.003L300.597 164.727ZM308.472 172V164.727H312.861V165.509H309.353V167.966H312.634V168.747H309.353V171.219H312.918V172H308.472ZM315.347 172H314.424L317.094 164.727H318.003L320.674 172H319.751L317.577 165.878H317.52L315.347 172ZM315.688 169.159H319.41V169.94H315.688V169.159ZM322.407 172V164.727H324.864C325.432 164.727 325.899 164.824 326.263 165.018C326.628 165.21 326.898 165.474 327.073 165.81C327.248 166.147 327.336 166.529 327.336 166.957C327.336 167.386 327.248 167.766 327.073 168.097C326.898 168.429 326.629 168.689 326.267 168.879C325.905 169.066 325.442 169.159 324.878 169.159H322.89V168.364H324.85C325.238 168.364 325.551 168.307 325.787 168.193C326.026 168.08 326.199 167.919 326.306 167.71C326.415 167.5 326.469 167.249 326.469 166.957C326.469 166.666 326.415 166.412 326.306 166.194C326.197 165.976 326.023 165.808 325.784 165.69C325.545 165.569 325.229 165.509 324.836 165.509H323.287V172H322.407ZM325.83 168.733L327.62 172H326.597L324.836 168.733H325.83Z" fill="#9291A5"/>
<path d="M230.027 164.727V172H228.489V166.187H228.447L226.781 167.231V165.867L228.582 164.727H230.027ZM232.263 172.092C232.029 172.092 231.828 172.009 231.66 171.844C231.494 171.676 231.411 171.474 231.411 171.24C231.411 171.008 231.494 170.809 231.66 170.643C231.828 170.478 232.029 170.395 232.263 170.395C232.491 170.395 232.689 170.478 232.86 170.643C233.03 170.809 233.116 171.008 233.116 171.24C233.116 171.396 233.075 171.54 232.995 171.67C232.917 171.798 232.814 171.901 232.686 171.979C232.558 172.054 232.417 172.092 232.263 172.092ZM236.797 172.099C236.267 172.099 235.795 172.008 235.38 171.826C234.968 171.641 234.643 171.388 234.404 171.066C234.167 170.742 234.045 170.368 234.038 169.944H235.586C235.596 170.121 235.654 170.278 235.76 170.413C235.869 170.545 236.014 170.648 236.194 170.722C236.373 170.795 236.576 170.832 236.801 170.832C237.035 170.832 237.242 170.79 237.422 170.707C237.602 170.625 237.743 170.51 237.845 170.363C237.947 170.216 237.998 170.047 237.998 169.855C237.998 169.661 237.943 169.489 237.834 169.34C237.728 169.189 237.574 169.07 237.373 168.985C237.174 168.9 236.937 168.857 236.662 168.857H235.984V167.728H236.662C236.894 167.728 237.099 167.688 237.277 167.607C237.457 167.527 237.596 167.415 237.696 167.273C237.795 167.129 237.845 166.961 237.845 166.769C237.845 166.587 237.801 166.427 237.713 166.29C237.628 166.15 237.507 166.041 237.351 165.963C237.197 165.885 237.017 165.846 236.811 165.846C236.603 165.846 236.413 165.884 236.24 165.96C236.067 166.033 235.928 166.138 235.824 166.276C235.72 166.413 235.664 166.574 235.657 166.759H234.184C234.191 166.339 234.31 165.97 234.542 165.651C234.774 165.331 235.087 165.081 235.48 164.901C235.875 164.719 236.321 164.628 236.819 164.628C237.32 164.628 237.76 164.719 238.136 164.901C238.512 165.084 238.805 165.33 239.013 165.64C239.224 165.948 239.328 166.293 239.326 166.677C239.328 167.084 239.201 167.424 238.946 167.696C238.692 167.968 238.362 168.141 237.955 168.214V168.271C238.49 168.34 238.897 168.526 239.177 168.829C239.458 169.129 239.598 169.506 239.596 169.958C239.598 170.372 239.478 170.741 239.237 171.062C238.998 171.384 238.668 171.638 238.246 171.822C237.825 172.007 237.342 172.099 236.797 172.099ZM244.682 170.636V170.253C244.682 169.962 244.743 169.694 244.866 169.45C244.992 169.204 245.173 169.008 245.41 168.861C245.649 168.712 245.94 168.637 246.283 168.637C246.631 168.637 246.924 168.71 247.16 168.857C247.399 169.004 247.579 169.201 247.7 169.447C247.823 169.691 247.885 169.959 247.885 170.253V170.636C247.885 170.928 247.823 171.196 247.7 171.442C247.577 171.686 247.396 171.882 247.157 172.028C246.918 172.178 246.626 172.252 246.283 172.252C245.935 172.252 245.643 172.178 245.406 172.028C245.169 171.882 244.989 171.686 244.866 171.442C244.743 171.196 244.682 170.928 244.682 170.636ZM245.715 170.253V170.636C245.715 170.804 245.755 170.963 245.836 171.112C245.919 171.261 246.068 171.336 246.283 171.336C246.499 171.336 246.645 171.263 246.724 171.116C246.804 170.969 246.844 170.809 246.844 170.636V170.253C246.844 170.08 246.806 169.919 246.731 169.77C246.655 169.621 246.506 169.546 246.283 169.546C246.07 169.546 245.922 169.621 245.839 169.77C245.756 169.919 245.715 170.08 245.715 170.253ZM240.949 166.474V166.091C240.949 165.797 241.012 165.529 241.138 165.285C241.263 165.039 241.444 164.842 241.681 164.695C241.92 164.549 242.209 164.475 242.547 164.475C242.898 164.475 243.191 164.549 243.428 164.695C243.665 164.842 243.845 165.039 243.968 165.285C244.091 165.529 244.153 165.797 244.153 166.091V166.474C244.153 166.768 244.09 167.037 243.964 167.281C243.841 167.524 243.66 167.72 243.421 167.866C243.184 168.011 242.893 168.083 242.547 168.083C242.202 168.083 241.909 168.01 241.67 167.863C241.434 167.714 241.254 167.518 241.131 167.277C241.01 167.033 240.949 166.766 240.949 166.474ZM241.99 166.091V166.474C241.99 166.647 242.03 166.807 242.111 166.954C242.193 167.101 242.339 167.174 242.547 167.174C242.765 167.174 242.913 167.101 242.991 166.954C243.072 166.807 243.112 166.647 243.112 166.474V166.091C243.112 165.918 243.074 165.757 242.998 165.608C242.923 165.459 242.772 165.384 242.547 165.384C242.337 165.384 242.191 165.46 242.111 165.612C242.03 165.763 241.99 165.923 241.99 166.091ZM241.418 172L246.418 164.727H247.349L242.349 172H241.418Z" fill="#04CE00"/>
<ellipse cx="217.601" cy="167.849" rx="5.60057" ry="5.46893" fill="#04CE00"/>
<path d="M218.858 167.266L218.708 167.413C217.904 168.198 217.099 168.983 216.295 169.769C216.132 169.928 215.94 169.962 215.748 169.876C215.563 169.791 215.462 169.635 215.488 169.447C215.513 169.311 215.578 169.186 215.677 169.087C216.454 168.314 217.242 167.551 218.027 166.784L218.175 166.639C218.128 166.631 218.079 166.626 218.031 166.623C217.716 166.621 217.401 166.624 217.087 166.621C216.838 166.618 216.666 166.45 216.663 166.218C216.659 165.964 216.815 165.794 217.076 165.792C217.799 165.788 218.523 165.787 219.246 165.791C219.538 165.792 219.702 165.947 219.708 166.229C219.721 166.93 219.729 167.631 219.732 168.331C219.732 168.588 219.561 168.739 219.3 168.737C219.053 168.735 218.891 168.58 218.884 168.331C218.876 168.034 218.875 167.738 218.87 167.442C218.869 167.395 218.863 167.349 218.858 167.266Z" fill="white"/>
<path d="M162.261 173.129C161.572 173.129 160.958 173.011 160.419 172.774C159.884 172.534 159.46 172.204 159.15 171.786C158.842 171.364 158.683 170.878 158.674 170.327H160.687C160.699 170.558 160.775 170.761 160.913 170.936C161.055 171.109 161.242 171.243 161.476 171.338C161.71 171.433 161.973 171.481 162.266 171.481C162.57 171.481 162.84 171.427 163.074 171.32C163.307 171.212 163.491 171.063 163.623 170.872C163.755 170.681 163.821 170.461 163.821 170.212C163.821 169.959 163.751 169.736 163.609 169.542C163.471 169.345 163.27 169.191 163.009 169.081C162.75 168.97 162.443 168.914 162.086 168.914H161.204V167.446H162.086C162.387 167.446 162.653 167.394 162.884 167.289C163.118 167.185 163.3 167.04 163.429 166.855C163.558 166.668 163.623 166.449 163.623 166.2C163.623 165.963 163.566 165.755 163.452 165.577C163.341 165.395 163.184 165.254 162.981 165.152C162.781 165.05 162.547 165 162.279 165C162.009 165 161.761 165.049 161.536 165.147C161.312 165.243 161.132 165.38 160.996 165.558C160.861 165.737 160.788 165.946 160.779 166.186H158.863C158.873 165.641 159.028 165.161 159.33 164.746C159.631 164.33 160.037 164.006 160.548 163.772C161.062 163.535 161.642 163.416 162.289 163.416C162.941 163.416 163.512 163.535 164.001 163.772C164.491 164.009 164.871 164.329 165.142 164.732C165.416 165.132 165.551 165.581 165.548 166.08C165.551 166.609 165.386 167.051 165.054 167.405C164.725 167.759 164.295 167.983 163.766 168.079V168.153C164.462 168.242 164.991 168.484 165.354 168.877C165.72 169.268 165.902 169.758 165.899 170.346C165.902 170.884 165.746 171.363 165.433 171.781C165.122 172.2 164.692 172.529 164.145 172.769C163.597 173.009 162.969 173.129 162.261 173.129ZM167.71 173L171.629 165.244V165.18H167.063V163.545H173.697V165.203L169.773 173H167.71ZM174.61 173.12C174.305 173.12 174.044 173.012 173.825 172.797C173.61 172.578 173.502 172.317 173.502 172.012C173.502 171.71 173.61 171.452 173.825 171.237C174.044 171.021 174.305 170.913 174.61 170.913C174.906 170.913 175.164 171.021 175.386 171.237C175.607 171.452 175.718 171.71 175.718 172.012C175.718 172.215 175.666 172.401 175.561 172.571C175.46 172.737 175.326 172.871 175.159 172.972C174.993 173.071 174.81 173.12 174.61 173.12ZM180.557 163.416C181.044 163.416 181.511 163.498 181.961 163.661C182.413 163.824 182.816 164.084 183.17 164.441C183.527 164.798 183.809 165.272 184.015 165.863C184.224 166.451 184.33 167.172 184.334 168.028C184.334 168.831 184.243 169.548 184.061 170.179C183.883 170.807 183.626 171.341 183.29 171.781C182.955 172.221 182.55 172.557 182.076 172.788C181.602 173.015 181.073 173.129 180.488 173.129C179.857 173.129 179.3 173.008 178.817 172.765C178.334 172.518 177.944 172.184 177.649 171.763C177.357 171.338 177.18 170.861 177.118 170.332H179.089C179.166 170.676 179.328 170.944 179.574 171.135C179.82 171.323 180.125 171.417 180.488 171.417C181.104 171.417 181.571 171.149 181.891 170.613C182.212 170.075 182.373 169.338 182.376 168.402H182.312C182.17 168.679 181.979 168.917 181.739 169.118C181.499 169.315 181.224 169.467 180.913 169.575C180.605 169.682 180.277 169.736 179.929 169.736C179.372 169.736 178.875 169.605 178.438 169.344C178.001 169.082 177.657 168.722 177.404 168.263C177.152 167.805 177.026 167.282 177.026 166.694C177.023 166.06 177.169 165.495 177.464 165C177.76 164.504 178.172 164.116 178.701 163.836C179.234 163.553 179.852 163.413 180.557 163.416ZM180.571 164.986C180.26 164.986 179.983 165.06 179.74 165.207C179.5 165.355 179.309 165.554 179.168 165.803C179.029 166.052 178.961 166.331 178.965 166.638C178.965 166.949 179.032 167.229 179.168 167.479C179.306 167.725 179.494 167.922 179.731 168.07C179.971 168.214 180.245 168.287 180.553 168.287C180.783 168.287 180.997 168.243 181.194 168.157C181.391 168.071 181.562 167.953 181.707 167.802C181.854 167.648 181.97 167.471 182.053 167.271C182.136 167.071 182.178 166.859 182.178 166.634C182.175 166.335 182.104 166.061 181.965 165.812C181.827 165.563 181.636 165.363 181.393 165.212C181.15 165.061 180.876 164.986 180.571 164.986ZM185.839 173L189.758 165.244V165.18H185.192V163.545H191.826V165.203L187.902 173H185.839ZM193.251 173V163.545H195.25V167.714H195.375L198.777 163.545H201.173L197.665 167.779L201.215 173H198.824L196.234 169.113L195.25 170.313V173H193.251Z" fill="#1E1B39"/>
<path d="M158.632 156V148.727H161.501C162.053 148.727 162.523 148.833 162.911 149.043C163.299 149.252 163.595 149.542 163.799 149.913C164.005 150.283 164.108 150.709 164.108 151.192C164.108 151.675 164.004 152.101 163.795 152.47C163.587 152.839 163.285 153.127 162.89 153.333C162.497 153.539 162.021 153.642 161.462 153.642H159.634V152.41H161.214C161.51 152.41 161.754 152.359 161.945 152.257C162.139 152.153 162.284 152.01 162.379 151.827C162.476 151.643 162.524 151.431 162.524 151.192C162.524 150.95 162.476 150.74 162.379 150.56C162.284 150.377 162.139 150.237 161.945 150.137C161.751 150.035 161.505 149.984 161.207 149.984H160.17V156H158.632ZM166.487 156.103C166.139 156.103 165.829 156.043 165.557 155.922C165.285 155.799 165.069 155.618 164.911 155.379C164.754 155.137 164.676 154.836 164.676 154.477C164.676 154.174 164.732 153.919 164.843 153.713C164.954 153.507 165.106 153.341 165.298 153.216C165.489 153.09 165.707 152.996 165.951 152.932C166.197 152.868 166.455 152.823 166.725 152.797C167.042 152.764 167.298 152.733 167.492 152.705C167.686 152.674 167.827 152.629 167.915 152.57C168.002 152.51 168.046 152.423 168.046 152.307V152.286C168.046 152.061 167.975 151.887 167.833 151.763C167.693 151.64 167.495 151.579 167.237 151.579C166.964 151.579 166.748 151.639 166.587 151.76C166.426 151.878 166.319 152.027 166.267 152.207L164.868 152.094C164.939 151.762 165.079 151.476 165.287 151.234C165.495 150.991 165.764 150.804 166.093 150.673C166.424 150.541 166.808 150.474 167.244 150.474C167.547 150.474 167.837 150.51 168.114 150.581C168.393 150.652 168.64 150.762 168.856 150.911C169.074 151.06 169.245 151.252 169.371 151.487C169.496 151.719 169.559 151.997 169.559 152.321V156H168.124V155.244H168.082C167.994 155.414 167.877 155.564 167.73 155.695C167.583 155.822 167.407 155.923 167.201 155.996C166.995 156.067 166.757 156.103 166.487 156.103ZM166.92 155.059C167.143 155.059 167.339 155.015 167.51 154.928C167.68 154.838 167.814 154.717 167.911 154.565C168.008 154.414 168.057 154.242 168.057 154.05V153.472C168.009 153.502 167.944 153.531 167.862 153.557C167.781 153.58 167.69 153.603 167.588 153.624C167.486 153.643 167.384 153.661 167.283 153.678C167.181 153.692 167.089 153.705 167.006 153.717C166.828 153.743 166.673 153.784 166.54 153.841C166.408 153.898 166.305 153.975 166.232 154.072C166.158 154.166 166.121 154.285 166.121 154.427C166.121 154.633 166.196 154.79 166.345 154.899C166.497 155.006 166.688 155.059 166.92 155.059ZM173.19 158.159C172.7 158.159 172.28 158.092 171.929 157.957C171.581 157.824 171.304 157.643 171.098 157.413C170.892 157.184 170.759 156.926 170.697 156.639L172.096 156.451C172.139 156.56 172.206 156.662 172.299 156.756C172.391 156.851 172.513 156.927 172.664 156.984C172.818 157.043 173.005 157.072 173.225 157.072C173.555 157.072 173.826 156.992 174.039 156.831C174.254 156.672 174.362 156.406 174.362 156.032V155.034H174.298C174.232 155.186 174.132 155.329 174 155.464C173.867 155.599 173.697 155.709 173.488 155.794C173.28 155.879 173.031 155.922 172.743 155.922C172.333 155.922 171.96 155.827 171.624 155.638C171.29 155.446 171.024 155.154 170.825 154.761C170.628 154.365 170.53 153.866 170.53 153.262C170.53 152.644 170.631 152.128 170.832 151.714C171.033 151.299 171.301 150.989 171.635 150.783C171.971 150.577 172.339 150.474 172.739 150.474C173.044 150.474 173.3 150.527 173.506 150.631C173.712 150.732 173.878 150.86 174.003 151.014C174.131 151.166 174.229 151.315 174.298 151.462H174.355V150.545H175.857V156.053C175.857 156.517 175.743 156.906 175.516 157.218C175.289 157.531 174.974 157.765 174.571 157.921C174.171 158.08 173.711 158.159 173.19 158.159ZM173.222 154.786C173.466 154.786 173.672 154.725 173.84 154.604C174.01 154.481 174.141 154.306 174.23 154.079C174.323 153.849 174.369 153.575 174.369 153.255C174.369 152.935 174.324 152.658 174.234 152.424C174.144 152.187 174.014 152.004 173.843 151.874C173.673 151.743 173.466 151.678 173.222 151.678C172.973 151.678 172.764 151.746 172.593 151.881C172.423 152.013 172.294 152.198 172.206 152.435C172.119 152.671 172.075 152.945 172.075 153.255C172.075 153.57 172.119 153.842 172.206 154.072C172.296 154.299 172.425 154.475 172.593 154.601C172.764 154.724 172.973 154.786 173.222 154.786ZM179.547 156.107C178.985 156.107 178.502 155.993 178.098 155.766C177.695 155.536 177.385 155.212 177.167 154.793C176.949 154.371 176.841 153.873 176.841 153.298C176.841 152.737 176.949 152.244 177.167 151.82C177.385 151.397 177.692 151.066 178.087 150.83C178.485 150.593 178.951 150.474 179.486 150.474C179.846 150.474 180.181 150.532 180.491 150.648C180.804 150.762 181.076 150.934 181.308 151.163C181.542 151.393 181.725 151.682 181.855 152.03C181.985 152.375 182.05 152.78 182.05 153.244V153.66H177.444V152.722H180.626C180.626 152.504 180.579 152.312 180.484 152.143C180.389 151.975 180.258 151.844 180.09 151.749C179.924 151.652 179.731 151.604 179.511 151.604C179.281 151.604 179.078 151.657 178.9 151.763C178.725 151.868 178.588 152.009 178.488 152.186C178.389 152.361 178.338 152.557 178.336 152.772V153.663C178.336 153.933 178.385 154.166 178.485 154.363C178.587 154.559 178.73 154.711 178.914 154.817C179.099 154.924 179.318 154.977 179.571 154.977C179.739 154.977 179.893 154.954 180.033 154.906C180.173 154.859 180.292 154.788 180.392 154.693C180.491 154.598 180.567 154.482 180.619 154.345L182.018 154.438C181.947 154.774 181.801 155.067 181.581 155.318C181.364 155.567 181.082 155.761 180.736 155.901C180.393 156.038 179.996 156.107 179.547 156.107ZM183.872 148.727L185.63 154.253H185.697L187.458 148.727H189.163L186.656 156H184.674L182.164 148.727H183.872ZM190.01 156V150.545H191.523V156H190.01ZM190.77 149.842C190.545 149.842 190.352 149.768 190.191 149.619C190.032 149.467 189.953 149.286 189.953 149.075C189.953 148.867 190.032 148.688 190.191 148.539C190.352 148.388 190.545 148.312 190.77 148.312C190.995 148.312 191.187 148.388 191.345 148.539C191.506 148.688 191.587 148.867 191.587 149.075C191.587 149.286 191.506 149.467 191.345 149.619C191.187 149.768 190.995 149.842 190.77 149.842ZM195.22 156.107C194.659 156.107 194.176 155.993 193.771 155.766C193.369 155.536 193.059 155.212 192.841 154.793C192.623 154.371 192.514 153.873 192.514 153.298C192.514 152.737 192.623 152.244 192.841 151.82C193.059 151.397 193.365 151.066 193.761 150.83C194.159 150.593 194.625 150.474 195.16 150.474C195.52 150.474 195.855 150.532 196.165 150.648C196.477 150.762 196.75 150.934 196.982 151.163C197.216 151.393 197.398 151.682 197.529 152.03C197.659 152.375 197.724 152.78 197.724 153.244V153.66H193.118V152.722H196.3C196.3 152.504 196.253 152.312 196.158 152.143C196.063 151.975 195.932 151.844 195.764 151.749C195.598 151.652 195.405 151.604 195.185 151.604C194.955 151.604 194.752 151.657 194.574 151.763C194.399 151.868 194.262 152.009 194.162 152.186C194.063 152.361 194.012 152.557 194.009 152.772V153.663C194.009 153.933 194.059 154.166 194.159 154.363C194.26 154.559 194.404 154.711 194.588 154.817C194.773 154.924 194.992 154.977 195.245 154.977C195.413 154.977 195.567 154.954 195.707 154.906C195.847 154.859 195.966 154.788 196.066 154.693C196.165 154.598 196.241 154.482 196.293 154.345L197.692 154.438C197.621 154.774 197.475 155.067 197.255 155.318C197.037 155.567 196.756 155.761 196.41 155.901C196.067 156.038 195.67 156.107 195.22 156.107ZM199.748 156L198.264 150.545H199.794L200.639 154.21H200.689L201.57 150.545H203.072L203.967 154.189H204.013L204.844 150.545H206.371L204.89 156H203.289L202.351 152.57H202.284L201.346 156H199.748ZM211.716 152.101L210.331 152.186C210.308 152.068 210.257 151.961 210.179 151.866C210.1 151.769 209.998 151.692 209.87 151.636C209.744 151.576 209.594 151.547 209.419 151.547C209.184 151.547 208.987 151.597 208.826 151.696C208.665 151.793 208.584 151.923 208.584 152.087C208.584 152.217 208.636 152.327 208.74 152.417C208.845 152.507 209.023 152.579 209.277 152.634L210.264 152.832C210.794 152.941 211.19 153.116 211.45 153.358C211.71 153.599 211.841 153.917 211.841 154.31C211.841 154.667 211.735 154.981 211.525 155.251C211.316 155.521 211.03 155.731 210.665 155.883C210.303 156.032 209.885 156.107 209.412 156.107C208.69 156.107 208.114 155.956 207.686 155.656C207.26 155.353 207.01 154.941 206.936 154.42L208.424 154.342C208.469 154.562 208.578 154.73 208.751 154.846C208.924 154.96 209.145 155.016 209.415 155.016C209.68 155.016 209.893 154.965 210.054 154.864C210.218 154.759 210.301 154.626 210.303 154.462C210.301 154.325 210.243 154.213 210.129 154.125C210.015 154.035 209.84 153.966 209.603 153.919L208.659 153.731C208.126 153.624 207.73 153.44 207.469 153.177C207.211 152.914 207.082 152.579 207.082 152.172C207.082 151.821 207.177 151.52 207.366 151.266C207.558 151.013 207.827 150.818 208.172 150.68C208.52 150.543 208.927 150.474 209.394 150.474C210.083 150.474 210.625 150.62 211.02 150.911C211.418 151.202 211.65 151.599 211.716 152.101Z" fill="#9291A5"/>
<rect x="517" y="142" width="85" height="24" rx="12" fill="#F8F8FF"/>
<path d="M531.787 149.722H532.838L535.31 155.759H535.395L537.867 149.722H538.918V156.994H538.094V151.469H538.023L535.75 156.994H534.955L532.682 151.469H532.611V156.994H531.787V149.722ZM542.786 157.108C542.293 157.108 541.861 156.991 541.49 156.756C541.12 156.522 540.832 156.194 540.623 155.773C540.417 155.351 540.314 154.859 540.314 154.296C540.314 153.727 540.417 153.231 540.623 152.808C540.832 152.384 541.12 152.055 541.49 151.82C541.861 151.586 542.293 151.469 542.786 151.469C543.278 151.469 543.709 151.586 544.079 151.82C544.45 152.055 544.739 152.384 544.945 152.808C545.153 153.231 545.257 153.727 545.257 154.296C545.257 154.859 545.153 155.351 544.945 155.773C544.739 156.194 544.45 156.522 544.079 156.756C543.709 156.991 543.278 157.108 542.786 157.108ZM542.786 156.355C543.16 156.355 543.468 156.259 543.709 156.068C543.951 155.876 544.129 155.624 544.245 155.311C544.361 154.999 544.419 154.66 544.419 154.296C544.419 153.931 544.361 153.591 544.245 153.276C544.129 152.961 543.951 152.707 543.709 152.513C543.468 152.319 543.16 152.222 542.786 152.222C542.412 152.222 542.104 152.319 541.863 152.513C541.621 152.707 541.442 152.961 541.326 153.276C541.21 153.591 541.152 153.931 541.152 154.296C541.152 154.66 541.21 154.999 541.326 155.311C541.442 155.624 541.621 155.876 541.863 156.068C542.104 156.259 542.412 156.355 542.786 156.355ZM547.375 153.713V156.994H546.537V151.54H547.346V152.392H547.417C547.545 152.115 547.739 151.893 548 151.724C548.26 151.554 548.596 151.469 549.008 151.469C549.378 151.469 549.701 151.545 549.978 151.696C550.255 151.845 550.47 152.073 550.624 152.378C550.778 152.681 550.855 153.064 550.855 153.528V156.994H550.017V153.585C550.017 153.157 549.906 152.823 549.683 152.584C549.461 152.342 549.155 152.222 548.767 152.222C548.499 152.222 548.26 152.28 548.05 152.396C547.841 152.512 547.677 152.681 547.556 152.903C547.435 153.126 547.375 153.396 547.375 153.713ZM554.759 151.54V152.25H551.932V151.54H554.759ZM552.756 150.233H553.594V155.432C553.594 155.669 553.628 155.846 553.697 155.965C553.768 156.081 553.858 156.159 553.967 156.199C554.078 156.237 554.195 156.256 554.318 156.256C554.411 156.256 554.486 156.251 554.545 156.242C554.605 156.23 554.652 156.22 554.688 156.213L554.858 156.966C554.801 156.987 554.722 157.009 554.62 157.03C554.518 157.054 554.389 157.065 554.233 157.065C553.996 157.065 553.764 157.015 553.537 156.913C553.312 156.811 553.125 156.656 552.976 156.448C552.829 156.239 552.756 155.976 552.756 155.659V150.233ZM556.974 153.713V156.994H556.136V149.722H556.974V152.392H557.045C557.173 152.11 557.365 151.887 557.621 151.721C557.879 151.553 558.222 151.469 558.651 151.469C559.022 151.469 559.348 151.543 559.627 151.693C559.907 151.839 560.123 152.065 560.277 152.371C560.433 152.674 560.511 153.06 560.511 153.528V156.994H559.673V153.585C559.673 153.152 559.561 152.817 559.336 152.58C559.113 152.341 558.804 152.222 558.409 152.222C558.135 152.222 557.888 152.28 557.67 152.396C557.455 152.512 557.285 152.681 557.159 152.903C557.036 153.126 556.974 153.396 556.974 153.713ZM562.883 149.722V156.994H562.045V149.722H562.883ZM564.957 159.04C564.815 159.04 564.689 159.028 564.577 159.004C564.466 158.983 564.389 158.962 564.347 158.94L564.56 158.202C564.763 158.254 564.943 158.273 565.099 158.259C565.256 158.244 565.394 158.175 565.515 158.049C565.638 157.926 565.751 157.726 565.852 157.449L566.009 157.023L563.992 151.54H564.901L566.406 155.886H566.463L567.969 151.54H568.878L566.563 157.79C566.458 158.072 566.329 158.305 566.175 158.489C566.022 158.676 565.843 158.815 565.639 158.905C565.438 158.995 565.211 159.04 564.957 159.04Z" fill="#615E83"/>
<path fill-rule="evenodd" clip-rule="evenodd" d="M586.039 151.133C585.862 151.31 585.862 151.597 586.039 151.773L589.124 154.858C589.127 154.861 589.13 154.864 589.133 154.867C589.221 154.956 589.337 155 589.453 155C589.569 155 589.685 154.956 589.774 154.867C589.777 154.864 589.78 154.861 589.783 154.858L592.867 151.773C593.044 151.597 593.044 151.31 592.867 151.133C592.69 150.956 592.404 150.956 592.227 151.133L589.453 153.906L586.68 151.133C586.503 150.956 586.216 150.956 586.039 151.133Z" fill="#615E83"/>
<g filter="url(#filter3_d_166_3851)">
<rect x="44" y="40" width="680" height="42.252" fill="#F9FBFF"/>
<rect x="75.5569" y="49.5066" width="618.922" height="23.2386" rx="10" fill="#F9FBFF"/>
<path fill-rule="evenodd" clip-rule="evenodd" d="M674.507 63.4927L674.507 64.1845L670.287 68.5544L669.03 67.2496L673.241 62.871L673.908 62.871L674.144 62.6345C673.317 61.6362 672.819 60.3401 672.819 58.9302C672.819 55.7864 675.275 53.238 678.305 53.238C681.335 53.238 683.79 55.7864 683.79 58.9302C683.79 62.0741 681.335 64.6224 678.305 64.6224C676.946 64.6224 675.697 64.1057 674.735 63.2475L674.507 63.4927ZM678.305 54.9893C676.203 54.9893 674.507 56.7495 674.507 58.9301C674.507 61.1106 676.203 62.8708 678.305 62.8708C680.406 62.8708 682.103 61.1106 682.103 58.9301C682.103 56.7495 680.406 54.9893 678.305 54.9893Z" fill="#949494"/>
<path d="M301.328 60.738V64.6755H300.322V55.9483H301.328V59.1528H301.413C301.566 58.8147 301.796 58.5463 302.103 58.3474C302.413 58.1457 302.825 58.0449 303.339 58.0449C303.785 58.0449 304.176 58.1343 304.511 58.3133C304.846 58.4895 305.106 58.7608 305.291 59.1272C305.478 59.4909 305.572 59.9539 305.572 60.5164V64.6755H304.566V60.5846C304.566 60.0647 304.431 59.6628 304.162 59.3787C303.894 59.0917 303.524 58.9483 303.049 58.9483C302.72 58.9483 302.424 59.0179 302.163 59.1571C301.904 59.2963 301.7 59.4994 301.549 59.7664C301.402 60.0335 301.328 60.3574 301.328 60.738ZM310.258 58.1301V58.9824H306.866V58.1301H310.258ZM307.855 56.5619H308.861V62.8005C308.861 63.0846 308.902 63.2977 308.984 63.4397C309.07 63.5789 309.177 63.6727 309.308 63.721C309.442 63.7664 309.582 63.7892 309.73 63.7892C309.841 63.7892 309.932 63.7835 310.003 63.7721C310.074 63.7579 310.131 63.7466 310.173 63.738L310.378 64.6414C310.31 64.667 310.214 64.6926 310.092 64.7182C309.97 64.7466 309.815 64.7608 309.628 64.7608C309.344 64.7608 309.065 64.6997 308.793 64.5775C308.523 64.4554 308.298 64.2693 308.119 64.0193C307.943 63.7693 307.855 63.4539 307.855 63.0733V56.5619ZM314.618 58.1301V58.9824H311.226V58.1301H314.618ZM312.214 56.5619H313.22V62.8005C313.22 63.0846 313.261 63.2977 313.344 63.4397C313.429 63.5789 313.537 63.6727 313.668 63.721C313.801 63.7664 313.942 63.7892 314.089 63.7892C314.2 63.7892 314.291 63.7835 314.362 63.7721C314.433 63.7579 314.49 63.7466 314.533 63.738L314.737 64.6414C314.669 64.667 314.574 64.6926 314.452 64.7182C314.329 64.7466 314.175 64.7608 313.987 64.7608C313.703 64.7608 313.425 64.6997 313.152 64.5775C312.882 64.4554 312.658 64.2693 312.479 64.0193C312.302 63.7693 312.214 63.4539 312.214 63.0733V56.5619ZM316.131 67.1301V58.1301H317.102V59.1699H317.222C317.295 59.0562 317.398 58.9113 317.528 58.7352C317.662 58.5562 317.852 58.3971 318.099 58.2579C318.349 58.1159 318.687 58.0449 319.114 58.0449C319.665 58.0449 320.15 58.1826 320.571 58.4582C320.991 58.7338 321.32 59.1244 321.555 59.6301C321.791 60.1358 321.909 60.7324 321.909 61.4199C321.909 62.113 321.791 62.7139 321.555 63.2224C321.32 63.7281 320.993 64.1201 320.575 64.3985C320.158 64.6741 319.676 64.8119 319.131 64.8119C318.71 64.8119 318.374 64.7423 318.121 64.6031C317.868 64.461 317.673 64.3005 317.537 64.1216C317.4 63.9397 317.295 63.7892 317.222 63.6699H317.136V67.1301H316.131ZM317.119 61.4028C317.119 61.8971 317.192 62.3332 317.337 62.711C317.481 63.086 317.693 63.3801 317.972 63.5932C318.25 63.8034 318.591 63.9085 318.994 63.9085C319.415 63.9085 319.766 63.7977 320.047 63.5761C320.331 63.3517 320.544 63.0505 320.686 62.6727C320.831 62.292 320.903 61.8687 320.903 61.4028C320.903 60.9426 320.832 60.5278 320.69 60.1585C320.551 59.7863 320.339 59.4923 320.055 59.2764C319.774 59.0576 319.42 58.9483 318.994 58.9483C318.585 58.9483 318.241 59.052 317.963 59.2593C317.685 59.4639 317.474 59.7508 317.332 60.1201C317.19 60.4866 317.119 60.9142 317.119 61.4028ZM328.079 59.596L327.176 59.8517C327.119 59.7011 327.035 59.5548 326.925 59.4128C326.817 59.2679 326.669 59.1485 326.481 59.0548C326.294 58.961 326.054 58.9142 325.761 58.9142C325.361 58.9142 325.027 59.0065 324.76 59.1912C324.496 59.373 324.364 59.6045 324.364 59.8858C324.364 60.1358 324.454 60.3332 324.636 60.4781C324.818 60.623 325.102 60.7437 325.489 60.8403L326.46 61.0789C327.045 61.221 327.481 61.4383 327.768 61.7309C328.055 62.0207 328.199 62.3943 328.199 62.8517C328.199 63.2267 328.091 63.5619 327.875 63.8574C327.662 64.1528 327.364 64.3858 326.98 64.5562C326.597 64.7267 326.15 64.8119 325.642 64.8119C324.974 64.8119 324.422 64.667 323.984 64.3772C323.547 64.0875 323.27 63.6642 323.153 63.1074L324.108 62.8687C324.199 63.221 324.371 63.4852 324.624 63.6613C324.879 63.8375 325.213 63.9255 325.625 63.9255C326.094 63.9255 326.466 63.8261 326.741 63.6272C327.02 63.4255 327.159 63.1841 327.159 62.9028C327.159 62.6755 327.079 62.4852 326.92 62.3318C326.761 62.1755 326.517 62.0591 326.187 61.9824L325.097 61.7267C324.497 61.5846 324.057 61.3645 323.775 61.0662C323.497 60.765 323.358 60.3886 323.358 59.9369C323.358 59.5676 323.462 59.2409 323.669 58.9568C323.879 58.6727 324.165 58.4497 324.525 58.2878C324.889 58.1258 325.301 58.0449 325.761 58.0449C326.409 58.0449 326.918 58.1869 327.287 58.471C327.659 58.7551 327.923 59.1301 328.079 59.596ZM330.446 64.7437C330.235 64.7437 330.055 64.6684 329.904 64.5179C329.754 64.3673 329.679 64.1869 329.679 63.9767C329.679 63.7664 329.754 63.586 329.904 63.4355C330.055 63.2849 330.235 63.2096 330.446 63.2096C330.656 63.2096 330.836 63.2849 330.987 63.4355C331.137 63.586 331.213 63.7664 331.213 63.9767C331.213 64.1159 331.177 64.2437 331.106 64.3602C331.038 64.4767 330.946 64.5704 330.829 64.6414C330.715 64.7096 330.588 64.7437 330.446 64.7437ZM330.446 59.8858C330.235 59.8858 330.055 59.8105 329.904 59.6599C329.754 59.5093 329.679 59.3289 329.679 59.1187C329.679 58.9085 329.754 58.7281 329.904 58.5775C330.055 58.427 330.235 58.3517 330.446 58.3517C330.656 58.3517 330.836 58.427 330.987 58.5775C331.137 58.7281 331.213 58.9085 331.213 59.1187C331.213 59.2579 331.177 59.3858 331.106 59.5022C331.038 59.6187 330.946 59.7125 330.829 59.7835C330.715 59.8517 330.588 59.8858 330.446 59.8858ZM336.103 55.5392L333.29 65.988H332.37L335.182 55.5392H336.103ZM340.38 55.5392L337.567 65.988H336.647L339.459 55.5392H340.38ZM344.231 64.8119C343.617 64.8119 343.089 64.667 342.646 64.3772C342.203 64.0875 341.862 63.6883 341.623 63.1798C341.385 62.6713 341.265 62.0903 341.265 61.4369C341.265 60.7721 341.387 60.1855 341.632 59.677C341.879 59.1656 342.223 58.7664 342.663 58.4795C343.106 58.1897 343.623 58.0449 344.214 58.0449C344.674 58.0449 345.089 58.1301 345.458 58.3005C345.828 58.471 346.13 58.7096 346.366 59.0164C346.602 59.3233 346.748 59.6812 346.805 60.0903H345.799C345.723 59.792 345.552 59.5278 345.288 59.2977C345.027 59.0647 344.674 58.9483 344.231 58.9483C343.839 58.9483 343.495 59.0505 343.2 59.2551C342.907 59.4568 342.679 59.7423 342.514 60.1116C342.352 60.4781 342.271 60.9085 342.271 61.4028C342.271 61.9085 342.35 62.3488 342.51 62.7238C342.671 63.0988 342.899 63.39 343.191 63.5974C343.487 63.8048 343.833 63.9085 344.231 63.9085C344.492 63.9085 344.73 63.863 344.943 63.7721C345.156 63.6812 345.336 63.5505 345.484 63.3801C345.632 63.2096 345.737 63.0051 345.799 62.7664H346.805C346.748 63.1528 346.608 63.5008 346.383 63.8105C346.162 64.1173 345.867 64.3616 345.501 64.5434C345.137 64.7224 344.714 64.8119 344.231 64.8119ZM350.934 64.8119C350.343 64.8119 349.825 64.6713 349.379 64.39C348.936 64.1088 348.589 63.7153 348.339 63.2096C348.092 62.7039 347.968 62.113 347.968 61.4369C347.968 60.7551 348.092 60.1599 348.339 59.6514C348.589 59.1429 348.936 58.748 349.379 58.4667C349.825 58.1855 350.343 58.0449 350.934 58.0449C351.525 58.0449 352.042 58.1855 352.485 58.4667C352.931 58.748 353.278 59.1429 353.525 59.6514C353.775 60.1599 353.9 60.7551 353.9 61.4369C353.9 62.113 353.775 62.7039 353.525 63.2096C353.278 63.7153 352.931 64.1088 352.485 64.39C352.042 64.6713 351.525 64.8119 350.934 64.8119ZM350.934 63.9085C351.383 63.9085 351.752 63.7934 352.042 63.5633C352.332 63.3332 352.546 63.0307 352.686 62.6557C352.825 62.2807 352.894 61.8744 352.894 61.4369C352.894 60.9994 352.825 60.5917 352.686 60.2139C352.546 59.836 352.332 59.5307 352.042 59.2977C351.752 59.0647 351.383 58.9483 350.934 58.9483C350.485 58.9483 350.116 59.0647 349.826 59.2977C349.537 59.5307 349.322 59.836 349.183 60.2139C349.044 60.5917 348.974 60.9994 348.974 61.4369C348.974 61.8744 349.044 62.2807 349.183 62.6557C349.322 63.0307 349.537 63.3332 349.826 63.5633C350.116 63.7934 350.485 63.9085 350.934 63.9085ZM356.441 60.738V64.6755H355.435V58.1301H356.407V59.1528H356.492C356.646 58.8204 356.878 58.5534 357.191 58.3517C357.503 58.1471 357.907 58.0449 358.401 58.0449C358.844 58.0449 359.232 58.1358 359.565 58.3176C359.897 58.4966 360.155 58.7693 360.34 59.1358C360.525 59.4994 360.617 59.9596 360.617 60.5164V64.6755H359.611V60.5846C359.611 60.0704 359.478 59.6699 359.211 59.3829C358.944 59.0932 358.577 58.9483 358.111 58.9483C357.79 58.9483 357.503 59.0179 357.251 59.1571C357.001 59.2963 356.803 59.4994 356.658 59.7664C356.513 60.0335 356.441 60.3574 356.441 60.738ZM367.091 59.596L366.188 59.8517C366.131 59.7011 366.047 59.5548 365.936 59.4128C365.828 59.2679 365.681 59.1485 365.493 59.0548C365.306 58.961 365.066 58.9142 364.773 58.9142C364.372 58.9142 364.039 59.0065 363.772 59.1912C363.507 59.373 363.375 59.6045 363.375 59.8858C363.375 60.1358 363.466 60.3332 363.648 60.4781C363.83 60.623 364.114 60.7437 364.5 60.8403L365.472 61.0789C366.057 61.221 366.493 61.4383 366.78 61.7309C367.067 62.0207 367.211 62.3943 367.211 62.8517C367.211 63.2267 367.103 63.5619 366.887 63.8574C366.674 64.1528 366.375 64.3858 365.992 64.5562C365.608 64.7267 365.162 64.8119 364.654 64.8119C363.986 64.8119 363.434 64.667 362.996 64.3772C362.559 64.0875 362.282 63.6642 362.165 63.1074L363.12 62.8687C363.211 63.221 363.382 63.4852 363.635 63.6613C363.891 63.8375 364.225 63.9255 364.637 63.9255C365.105 63.9255 365.478 63.8261 365.753 63.6272C366.032 63.4255 366.171 63.1841 366.171 62.9028C366.171 62.6755 366.091 62.4852 365.932 62.3318C365.773 62.1755 365.529 62.0591 365.199 61.9824L364.108 61.7267C363.509 61.5846 363.068 61.3645 362.787 61.0662C362.509 60.765 362.37 60.3886 362.37 59.9369C362.37 59.5676 362.473 59.2409 362.681 58.9568C362.891 58.6727 363.176 58.4497 363.537 58.2878C363.901 58.1258 364.313 58.0449 364.773 58.0449C365.421 58.0449 365.929 58.1869 366.299 58.471C366.671 58.7551 366.935 59.1301 367.091 59.596ZM371.383 64.8119C370.793 64.8119 370.274 64.6713 369.828 64.39C369.385 64.1088 369.038 63.7153 368.788 63.2096C368.541 62.7039 368.418 62.113 368.418 61.4369C368.418 60.7551 368.541 60.1599 368.788 59.6514C369.038 59.1429 369.385 58.748 369.828 58.4667C370.274 58.1855 370.793 58.0449 371.383 58.0449C371.974 58.0449 372.491 58.1855 372.935 58.4667C373.381 58.748 373.727 59.1429 373.974 59.6514C374.224 60.1599 374.349 60.7551 374.349 61.4369C374.349 62.113 374.224 62.7039 373.974 63.2096C373.727 63.7153 373.381 64.1088 372.935 64.39C372.491 64.6713 371.974 64.8119 371.383 64.8119ZM371.383 63.9085C371.832 63.9085 372.202 63.7934 372.491 63.5633C372.781 63.3332 372.996 63.0307 373.135 62.6557C373.274 62.2807 373.344 61.8744 373.344 61.4369C373.344 60.9994 373.274 60.5917 373.135 60.2139C372.996 59.836 372.781 59.5307 372.491 59.2977C372.202 59.0647 371.832 58.9483 371.383 58.9483C370.935 58.9483 370.565 59.0647 370.275 59.2977C369.986 59.5307 369.771 59.836 369.632 60.2139C369.493 60.5917 369.423 60.9994 369.423 61.4369C369.423 61.8744 369.493 62.2807 369.632 62.6557C369.771 63.0307 369.986 63.3332 370.275 63.5633C370.565 63.7934 370.935 63.9085 371.383 63.9085ZM376.89 55.9483V64.6755H375.885V55.9483H376.89ZM381.476 64.8119C380.846 64.8119 380.302 64.6727 379.844 64.3943C379.39 64.113 379.039 63.721 378.792 63.2182C378.548 62.7125 378.425 62.1244 378.425 61.4539C378.425 60.7835 378.548 60.1926 378.792 59.6812C379.039 59.167 379.383 58.7664 379.823 58.4795C380.266 58.1897 380.783 58.0449 381.374 58.0449C381.715 58.0449 382.052 58.1017 382.384 58.2153C382.717 58.3289 383.019 58.5136 383.292 58.7693C383.565 59.0221 383.782 59.3574 383.944 59.775C384.106 60.1926 384.187 60.7068 384.187 61.3176V61.7437H379.141V60.8744H383.164C383.164 60.5051 383.09 60.1755 382.942 59.8858C382.798 59.596 382.59 59.3673 382.32 59.1997C382.053 59.0321 381.738 58.9483 381.374 58.9483C380.974 58.9483 380.627 59.0477 380.334 59.2466C380.045 59.4426 379.822 59.6983 379.665 60.0136C379.509 60.3289 379.431 60.667 379.431 61.0278V61.6074C379.431 62.1017 379.516 62.5207 379.687 62.8645C379.86 63.2054 380.1 63.4653 380.407 63.6443C380.714 63.8204 381.07 63.9085 381.476 63.9085C381.741 63.9085 381.979 63.8716 382.192 63.7977C382.408 63.721 382.594 63.6074 382.751 63.4568C382.907 63.3034 383.028 63.113 383.113 62.8858L384.084 63.1585C383.982 63.488 383.81 63.7778 383.569 64.0278C383.327 64.275 383.029 64.4682 382.674 64.6074C382.319 64.7437 381.92 64.8119 381.476 64.8119ZM386.449 64.7437C386.239 64.7437 386.059 64.6684 385.908 64.5179C385.758 64.3673 385.682 64.1869 385.682 63.9767C385.682 63.7664 385.758 63.586 385.908 63.4355C386.059 63.2849 386.239 63.2096 386.449 63.2096C386.66 63.2096 386.84 63.2849 386.991 63.4355C387.141 63.586 387.217 63.7664 387.217 63.9767C387.217 64.1159 387.181 64.2437 387.11 64.3602C387.042 64.4767 386.949 64.5704 386.833 64.6414C386.719 64.7096 386.592 64.7437 386.449 64.7437ZM393.146 61.9994V58.1301H394.152V64.6755H393.146V63.5676H393.078C392.925 63.9 392.686 64.1826 392.362 64.4156C392.038 64.6457 391.629 64.7608 391.135 64.7608C390.726 64.7608 390.362 64.6713 390.044 64.4923C389.726 64.3105 389.476 64.0378 389.294 63.6741C389.112 63.3076 389.021 62.846 389.021 62.2892V58.1301H390.027V62.221C390.027 62.6983 390.16 63.0789 390.427 63.363C390.697 63.6471 391.041 63.7892 391.459 63.7892C391.709 63.7892 391.963 63.7253 392.222 63.5974C392.483 63.4696 392.702 63.2735 392.878 63.0093C393.057 62.7451 393.146 62.4085 393.146 61.9994ZM400.63 59.596L399.727 59.8517C399.67 59.7011 399.586 59.5548 399.475 59.4128C399.367 59.2679 399.22 59.1485 399.032 59.0548C398.845 58.961 398.605 58.9142 398.312 58.9142C397.912 58.9142 397.578 59.0065 397.311 59.1912C397.046 59.373 396.914 59.6045 396.914 59.8858C396.914 60.1358 397.005 60.3332 397.187 60.4781C397.369 60.623 397.653 60.7437 398.039 60.8403L399.011 61.0789C399.596 61.221 400.032 61.4383 400.319 61.7309C400.606 62.0207 400.75 62.3943 400.75 62.8517C400.75 63.2267 400.642 63.5619 400.426 63.8574C400.213 64.1528 399.914 64.3858 399.531 64.5562C399.147 64.7267 398.701 64.8119 398.193 64.8119C397.525 64.8119 396.973 64.667 396.535 64.3772C396.098 64.0875 395.821 63.6642 395.704 63.1074L396.659 62.8687C396.75 63.221 396.921 63.4852 397.174 63.6613C397.43 63.8375 397.764 63.9255 398.176 63.9255C398.644 63.9255 399.017 63.8261 399.292 63.6272C399.571 63.4255 399.71 63.1841 399.71 62.9028C399.71 62.6755 399.63 62.4852 399.471 62.3318C399.312 62.1755 399.068 62.0591 398.738 61.9824L397.647 61.7267C397.048 61.5846 396.608 61.3645 396.326 61.0662C396.048 60.765 395.909 60.3886 395.909 59.9369C395.909 59.5676 396.012 59.2409 396.22 58.9568C396.43 58.6727 396.715 58.4497 397.076 58.2878C397.44 58.1258 397.852 58.0449 398.312 58.0449C398.96 58.0449 399.468 58.1869 399.838 58.471C400.21 58.7551 400.474 59.1301 400.63 59.596ZM405.008 64.8119C404.377 64.8119 403.833 64.6727 403.376 64.3943C402.921 64.113 402.57 63.721 402.323 63.2182C402.079 62.7125 401.957 62.1244 401.957 61.4539C401.957 60.7835 402.079 60.1926 402.323 59.6812C402.57 59.167 402.914 58.7664 403.354 58.4795C403.798 58.1897 404.315 58.0449 404.905 58.0449C405.246 58.0449 405.583 58.1017 405.915 58.2153C406.248 58.3289 406.55 58.5136 406.823 58.7693C407.096 59.0221 407.313 59.3574 407.475 59.775C407.637 60.1926 407.718 60.7068 407.718 61.3176V61.7437H402.673V60.8744H406.695C406.695 60.5051 406.621 60.1755 406.474 59.8858C406.329 59.596 406.121 59.3673 405.851 59.1997C405.584 59.0321 405.269 58.9483 404.905 58.9483C404.505 58.9483 404.158 59.0477 403.866 59.2466C403.576 59.4426 403.353 59.6983 403.197 60.0136C403.04 60.3289 402.962 60.667 402.962 61.0278V61.6074C402.962 62.1017 403.048 62.5207 403.218 62.8645C403.391 63.2054 403.631 63.4653 403.938 63.6443C404.245 63.8204 404.601 63.9085 405.008 63.9085C405.272 63.9085 405.511 63.8716 405.724 63.7977C405.94 63.721 406.126 63.6074 406.282 63.4568C406.438 63.3034 406.559 63.113 406.644 62.8858L407.616 63.1585C407.513 63.488 407.342 63.7778 407.1 64.0278C406.859 64.275 406.56 64.4682 406.205 64.6074C405.85 64.7437 405.451 64.8119 405.008 64.8119ZM411.907 64.8119C411.316 64.8119 410.798 64.6713 410.351 64.39C409.908 64.1088 409.562 63.7153 409.312 63.2096C409.065 62.7039 408.941 62.113 408.941 61.4369C408.941 60.7551 409.065 60.1599 409.312 59.6514C409.562 59.1429 409.908 58.748 410.351 58.4667C410.798 58.1855 411.316 58.0449 411.907 58.0449C412.498 58.0449 413.015 58.1855 413.458 58.4667C413.904 58.748 414.251 59.1429 414.498 59.6514C414.748 60.1599 414.873 60.7551 414.873 61.4369C414.873 62.113 414.748 62.7039 414.498 63.2096C414.251 63.7153 413.904 64.1088 413.458 64.39C413.015 64.6713 412.498 64.8119 411.907 64.8119ZM411.907 63.9085C412.356 63.9085 412.725 63.7934 413.015 63.5633C413.305 63.3332 413.519 63.0307 413.658 62.6557C413.798 62.2807 413.867 61.8744 413.867 61.4369C413.867 60.9994 413.798 60.5917 413.658 60.2139C413.519 59.836 413.305 59.5307 413.015 59.2977C412.725 59.0647 412.356 58.9483 411.907 58.9483C411.458 58.9483 411.089 59.0647 410.799 59.2977C410.509 59.5307 410.295 59.836 410.155 60.2139C410.016 60.5917 409.947 60.9994 409.947 61.4369C409.947 61.8744 410.016 62.2807 410.155 62.6557C410.295 63.0307 410.509 63.3332 410.799 63.5633C411.089 63.7934 411.458 63.9085 411.907 63.9085ZM420.533 61.9994V58.1301H421.539V64.6755H420.533V63.5676H420.465C420.311 63.9 420.073 64.1826 419.749 64.4156C419.425 64.6457 419.016 64.7608 418.522 64.7608C418.112 64.7608 417.749 64.6713 417.431 64.4923C417.112 64.3105 416.862 64.0378 416.681 63.6741C416.499 63.3076 416.408 62.846 416.408 62.2892V58.1301H417.414V62.221C417.414 62.6983 417.547 63.0789 417.814 63.363C418.084 63.6471 418.428 63.7892 418.845 63.7892C419.095 63.7892 419.35 63.7253 419.608 63.5974C419.87 63.4696 420.088 63.2735 420.264 63.0093C420.443 62.7451 420.533 62.4085 420.533 61.9994ZM426.227 58.1301V58.9824H422.835V58.1301H426.227ZM423.824 56.5619H424.829V62.8005C424.829 63.0846 424.871 63.2977 424.953 63.4397C425.038 63.5789 425.146 63.6727 425.277 63.721C425.41 63.7664 425.551 63.7892 425.699 63.7892C425.81 63.7892 425.9 63.7835 425.972 63.7721C426.043 63.7579 426.099 63.7466 426.142 63.738L426.347 64.6414C426.278 64.667 426.183 64.6926 426.061 64.7182C425.939 64.7466 425.784 64.7608 425.597 64.7608C425.312 64.7608 425.034 64.6997 424.761 64.5775C424.491 64.4554 424.267 64.2693 424.088 64.0193C423.912 63.7693 423.824 63.4539 423.824 63.0733V56.5619ZM428.886 55.9483V64.6755H427.881V55.9483H428.886ZM430.728 64.6755V58.1301H431.734V64.6755H430.728ZM431.24 57.0392C431.044 57.0392 430.875 56.9724 430.733 56.8389C430.593 56.7054 430.524 56.5449 430.524 56.3574C430.524 56.1699 430.593 56.0093 430.733 55.8758C430.875 55.7423 431.044 55.6755 431.24 55.6755C431.436 55.6755 431.603 55.7423 431.742 55.8758C431.885 56.0093 431.956 56.1699 431.956 56.3574C431.956 56.5449 431.885 56.7054 431.742 56.8389C431.603 56.9724 431.436 57.0392 431.24 57.0392ZM434.582 60.738V64.6755H433.576V58.1301H434.548V59.1528H434.633C434.786 58.8204 435.019 58.5534 435.332 58.3517C435.644 58.1471 436.048 58.0449 436.542 58.0449C436.985 58.0449 437.373 58.1358 437.705 58.3176C438.038 58.4966 438.296 58.7693 438.481 59.1358C438.665 59.4994 438.758 59.9596 438.758 60.5164V64.6755H437.752V60.5846C437.752 60.0704 437.619 59.6699 437.351 59.3829C437.084 59.0932 436.718 58.9483 436.252 58.9483C435.931 58.9483 435.644 59.0179 435.391 59.1571C435.141 59.2963 434.944 59.4994 434.799 59.7664C434.654 60.0335 434.582 60.3574 434.582 60.738ZM443.34 64.8119C442.709 64.8119 442.165 64.6727 441.708 64.3943C441.253 64.113 440.902 63.721 440.655 63.2182C440.411 62.7125 440.289 62.1244 440.289 61.4539C440.289 60.7835 440.411 60.1926 440.655 59.6812C440.902 59.167 441.246 58.7664 441.686 58.4795C442.13 58.1897 442.647 58.0449 443.237 58.0449C443.578 58.0449 443.915 58.1017 444.247 58.2153C444.58 58.3289 444.882 58.5136 445.155 58.7693C445.428 59.0221 445.645 59.3574 445.807 59.775C445.969 60.1926 446.05 60.7068 446.05 61.3176V61.7437H441.005V60.8744H445.027C445.027 60.5051 444.953 60.1755 444.806 59.8858C444.661 59.596 444.453 59.3673 444.184 59.1997C443.916 59.0321 443.601 58.9483 443.237 58.9483C442.837 58.9483 442.49 59.0477 442.198 59.2466C441.908 59.4426 441.685 59.6983 441.529 60.0136C441.372 60.3289 441.294 60.667 441.294 61.0278V61.6074C441.294 62.1017 441.38 62.5207 441.55 62.8645C441.723 63.2054 441.963 63.4653 442.27 63.6443C442.577 63.8204 442.934 63.9085 443.34 63.9085C443.604 63.9085 443.843 63.8716 444.056 63.7977C444.272 63.721 444.458 63.6074 444.614 63.4568C444.77 63.3034 444.891 63.113 444.976 62.8858L445.948 63.1585C445.845 63.488 445.674 63.7778 445.432 64.0278C445.191 64.275 444.892 64.4682 444.537 64.6074C444.182 64.7437 443.783 64.8119 443.34 64.8119ZM448.313 64.7437C448.103 64.7437 447.922 64.6684 447.772 64.5179C447.621 64.3673 447.546 64.1869 447.546 63.9767C447.546 63.7664 447.621 63.586 447.772 63.4355C447.922 63.2849 448.103 63.2096 448.313 63.2096C448.523 63.2096 448.703 63.2849 448.854 63.4355C449.005 63.586 449.08 63.7664 449.08 63.9767C449.08 64.1159 449.044 64.2437 448.973 64.3602C448.905 64.4767 448.813 64.5704 448.696 64.6414C448.583 64.7096 448.455 64.7437 448.313 64.7437ZM451.635 58.1301L453.203 60.8062L454.771 58.1301H455.93L453.816 61.4028L455.93 64.6755H454.771L453.203 62.1358L451.635 64.6755H450.475L452.555 61.4028L450.475 58.1301H451.635ZM458.013 67.1301C457.842 67.1301 457.69 67.1159 457.557 67.0875C457.423 67.0619 457.331 67.0363 457.28 67.0108L457.535 66.1244C457.78 66.1869 457.996 66.2096 458.183 66.1926C458.371 66.1755 458.537 66.0917 458.682 65.9412C458.829 65.7934 458.964 65.5534 459.087 65.221L459.274 64.7096L456.854 58.1301H457.945L459.751 63.346H459.82L461.626 58.1301H462.717L459.939 65.6301C459.814 65.9682 459.659 66.248 459.474 66.4696C459.29 66.694 459.075 66.8602 458.831 66.9682C458.589 67.0761 458.317 67.1301 458.013 67.1301ZM463.857 64.6755V63.9085L467.573 59.1358V59.0676H463.976V58.1301H468.869V58.9312L465.255 63.6699V63.738H468.988V64.6755H463.857Z" fill="#949494"/>
<path d="M88.2727 56.7273V57.6364H87.5909C86.7123 57.6364 86 58.3486 86 59.2273V65.1364C86 66.015 86.7123 66.7273 87.5909 66.7273H94.4091C95.2877 66.7273 96 66.015 96 65.1364V59.2273C96 58.3486 95.2877 57.6364 94.4091 57.6364H93.7273V56.7273C93.7273 55.221 92.5062 54 91 54C89.4938 54 88.2727 55.221 88.2727 56.7273ZM91 54.9091C92.0042 54.9091 92.8182 55.7231 92.8182 56.7273V57.6364H89.1818V56.7273C89.1818 55.7231 89.9958 54.9091 91 54.9091ZM91 63.0909C90.4979 63.0909 90.0909 62.6839 90.0909 62.1818C90.0909 61.6797 90.4979 61.2727 91 61.2727C91.5021 61.2727 91.9091 61.6797 91.9091 62.1818C91.9091 62.6839 91.5021 63.0909 91 63.0909Z" fill="#53AB2A"/>
</g>
</g>
<rect x="329" y="26" width="121" height="9" rx="4.5" fill="#15284C"/>
<circle cx="463.5" cy="30.5" r="4.5" fill="#15284C"/>
<circle cx="304.5" cy="30.5" r="4.5" fill="#15284C"/>
</g>
<defs>
<filter id="filter0_dii_166_3851" x="0" y="0" width="768" height="482.316" filterUnits="userSpaceOnUse" color-interpolation-filters="sRGB">
<feFlood flood-opacity="0" result="BackgroundImageFix"/>
<feColorMatrix in="SourceAlpha" type="matrix" values="0 0 0 0 0 0 0 0 0 0 0 0 0 0 0 0 0 0 127 0" result="hardAlpha"/>
<feOffset dy="4"/>
<feGaussianBlur stdDeviation="12"/>
<feColorMatrix type="matrix" values="0 0 0 0 0 0 0 0 0 0 0 0 0 0 0 0 0 0 0.35 0"/>
<feBlend mode="normal" in2="BackgroundImageFix" result="effect1_dropShadow_166_3851"/>
<feBlend mode="normal" in="SourceGraphic" in2="effect1_dropShadow_166_3851" result="shape"/>
<feColorMatrix in="SourceAlpha" type="matrix" values="0 0 0 0 0 0 0 0 0 0 0 0 0 0 0 0 0 0 127 0" result="hardAlpha"/>
<feOffset dx="-9" dy="-10"/>
<feGaussianBlur stdDeviation="5"/>
<feComposite in2="hardAlpha" operator="arithmetic" k2="-1" k3="1"/>
<feColorMatrix type="matrix" values="0 0 0 0 0.916667 0 0 0 0 0.916667 0 0 0 0 0.916667 0 0 0 0.19 0"/>
<feBlend mode="normal" in2="shape" result="effect2_innerShadow_166_3851"/>
<feColorMatrix in="SourceAlpha" type="matrix" values="0 0 0 0 0 0 0 0 0 0 0 0 0 0 0 0 0 0 127 0" result="hardAlpha"/>
<feOffset dx="-3" dy="-7"/>
<feGaussianBlur stdDeviation="2.5"/>
<feComposite in2="hardAlpha" operator="arithmetic" k2="-1" k3="1"/>
<feColorMatrix type="matrix" values="0 0 0 0 0 0 0 0 0 0 0 0 0 0 0 0 0 0 0.17 0"/>
<feBlend mode="normal" in2="effect2_innerShadow_166_3851" result="effect3_innerShadow_166_3851"/>
</filter>
<filter id="filter1_d_166_3851" x="138" y="123" width="492" height="258.908" filterUnits="userSpaceOnUse" color-interpolation-filters="sRGB">
<feFlood flood-opacity="0" result="BackgroundImageFix"/>
<feColorMatrix in="SourceAlpha" type="matrix" values="0 0 0 0 0 0 0 0 0 0 0 0 0 0 0 0 0 0 127 0" result="hardAlpha"/>
<feOffset dy="2"/>
<feGaussianBlur stdDeviation="3"/>
<feComposite in2="hardAlpha" operator="out"/>
<feColorMatrix type="matrix" values="0 0 0 0 0.0509804 0 0 0 0 0.0392157 0 0 0 0 0.172549 0 0 0 0.08 0"/>
<feBlend mode="normal" in2="BackgroundImageFix" result="effect1_dropShadow_166_3851"/>
<feBlend mode="normal" in="SourceGraphic" in2="effect1_dropShadow_166_3851" result="shape"/>
</filter>
<filter id="filter2_d_166_3851" x="434.683" y="229.385" width="24.6869" height="24.6869" filterUnits="userSpaceOnUse" color-interpolation-filters="sRGB">
<feFlood flood-opacity="0" result="BackgroundImageFix"/>
<feColorMatrix in="SourceAlpha" type="matrix" values="0 0 0 0 0 0 0 0 0 0 0 0 0 0 0 0 0 0 127 0" result="hardAlpha"/>
<feOffset dy="8"/>
<feGaussianBlur stdDeviation="4"/>
<feComposite in2="hardAlpha" operator="out"/>
<feColorMatrix type="matrix" values="0 0 0 0 0.0509804 0 0 0 0 0.0392157 0 0 0 0 0.172549 0 0 0 0.08 0"/>
<feBlend mode="normal" in2="BackgroundImageFix" result="effect1_dropShadow_166_3851"/>
<feBlend mode="normal" in="SourceGraphic" in2="effect1_dropShadow_166_3851" result="shape"/>
</filter>
<filter id="filter3_d_166_3851" x="32" y="32" width="704" height="66.252" filterUnits="userSpaceOnUse" color-interpolation-filters="sRGB">
<feFlood flood-opacity="0" result="BackgroundImageFix"/>
<feColorMatrix in="SourceAlpha" type="matrix" values="0 0 0 0 0 0 0 0 0 0 0 0 0 0 0 0 0 0 127 0" result="hardAlpha"/>
<feOffset dy="4"/>
<feGaussianBlur stdDeviation="6"/>
<feColorMatrix type="matrix" values="0 0 0 0 0 0 0 0 0 0 0 0 0 0 0 0 0 0 0.14 0"/>
<feBlend mode="normal" in2="BackgroundImageFix" result="effect1_dropShadow_166_3851"/>
<feBlend mode="normal" in="SourceGraphic" in2="effect1_dropShadow_166_3851" result="shape"/>
</filter>
<linearGradient id="paint0_linear_166_3851" x1="370.31" y1="216.262" x2="370.31" y2="334.177" gradientUnits="userSpaceOnUse">
<stop stop-color="#5991FF"/>
<stop offset="0.46679" stop-color="#90B6FF"/>
<stop offset="1" stop-color="white"/>
</linearGradient>
</defs>
</svg>
