<svg width="160" height="160" viewBox="0 0 160 160" fill="none" xmlns="http://www.w3.org/2000/svg">
<rect x="32.0308" y="42" width="88.3379" height="88.3379" rx="10.2989" fill="#4685FF"/>
<rect x="30.4828" y="42.4828" width="87.3724" height="87.3724" rx="9.81609" fill="#F9FBFF" stroke="#4685FF" stroke-width="0.965517"/>
<path d="M30.4828 52.2988C30.4828 46.8776 34.8776 42.4828 40.2988 42.4828H108.039C113.46 42.4828 117.855 46.8776 117.855 52.2989V56.7479H30.4828V52.2988Z" fill="#4685FF" stroke="#4685FF" stroke-width="0.965517"/>
<path d="M39.0478 52.9879C40.6801 52.9879 42.0033 51.6647 42.0033 50.0324C42.0033 48.4001 40.6801 47.0769 39.0478 47.0769C37.4155 47.0769 36.0923 48.4001 36.0923 50.0324C36.0923 51.6647 37.4155 52.9879 39.0478 52.9879Z" fill="#F9FBFF" stroke="#4685FF" stroke-width="0.965517" stroke-miterlimit="10"/>
<path d="M47.9204 52.9879C49.5527 52.9879 50.8759 51.6647 50.8759 50.0324C50.8759 48.4001 49.5527 47.0769 47.9204 47.0769C46.2881 47.0769 44.9649 48.4001 44.9649 50.0324C44.9649 51.6647 46.2881 52.9879 47.9204 52.9879Z" fill="#F9FBFF" stroke="#4685FF" stroke-width="0.965517" stroke-miterlimit="10"/>
<path d="M56.8 52.9879C58.4323 52.9879 59.7555 51.6647 59.7555 50.0324C59.7555 48.4001 58.4323 47.0769 56.8 47.0769C55.1677 47.0769 53.8445 48.4001 53.8445 50.0324C53.8445 51.6647 55.1677 52.9879 56.8 52.9879Z" fill="#F9FBFF" stroke="#4685FF" stroke-width="0.965517" stroke-miterlimit="10"/>
<path d="M61.8253 75.9155H39.5357C37.7541 75.9155 36.3098 77.3598 36.3098 79.1414C36.3098 80.9231 37.7541 82.3674 39.5357 82.3674H61.8253C63.6069 82.3674 65.0512 80.9231 65.0512 79.1414C65.0512 77.3598 63.6069 75.9155 61.8253 75.9155Z" fill="#4685FF"/>
<path d="M104.575 91.0117H38.2974C37.1997 91.0117 36.3098 91.9016 36.3098 92.9993C36.3098 94.097 37.1997 94.9869 38.2974 94.9869H104.575C105.672 94.9869 106.562 94.097 106.562 92.9993C106.562 91.9016 105.672 91.0117 104.575 91.0117Z" fill="#6B9DFF"/>
<path d="M89.4703 101.005H38.2974C37.1997 101.005 36.3098 101.895 36.3098 102.993C36.3098 104.09 37.1997 104.98 38.2974 104.98H89.4703C90.5681 104.98 91.4579 104.09 91.4579 102.993C91.4579 101.895 90.5681 101.005 89.4703 101.005Z" fill="#6B9DFF"/>
<mask id="path-11-inside-1_196_92" fill="white">
<path fill-rule="evenodd" clip-rule="evenodd" d="M116.013 63.6862C129.813 63.6862 141 54.1305 141 42.3431C141 30.5556 129.813 21 116.013 21C102.213 21 91.026 30.5556 91.026 42.3431C91.026 50.229 96.0331 57.1161 103.48 60.8112L103.663 65.1425C103.732 66.7765 105.627 67.6413 106.907 66.6231L111.113 63.276C112.698 63.5451 114.336 63.6862 116.013 63.6862Z"/>
</mask>
<path fill-rule="evenodd" clip-rule="evenodd" d="M116.013 63.6862C129.813 63.6862 141 54.1305 141 42.3431C141 30.5556 129.813 21 116.013 21C102.213 21 91.026 30.5556 91.026 42.3431C91.026 50.229 96.0331 57.1161 103.48 60.8112L103.663 65.1425C103.732 66.7765 105.627 67.6413 106.907 66.6231L111.113 63.276C112.698 63.5451 114.336 63.6862 116.013 63.6862Z" fill="#4685FF"/>
<path d="M103.48 60.8112L104.229 60.7795L104.21 60.3365L103.813 60.1394L103.48 60.8112ZM103.663 65.1425L102.914 65.1742L103.663 65.1425ZM106.907 66.6231L106.44 66.0362L106.907 66.6231ZM111.113 63.276L111.239 62.5366L110.909 62.4805L110.647 62.6891L111.113 63.276ZM140.25 42.3431C140.25 53.6098 129.514 62.9362 116.013 62.9362V64.4362C130.112 64.4362 141.75 54.6513 141.75 42.3431H140.25ZM116.013 21.75C129.514 21.75 140.25 31.0764 140.25 42.3431H141.75C141.75 30.0349 130.112 20.25 116.013 20.25V21.75ZM91.776 42.3431C91.776 31.0764 102.512 21.75 116.013 21.75V20.25C101.914 20.25 90.276 30.0349 90.276 42.3431H91.776ZM103.813 60.1394C96.5692 56.5448 91.776 49.8899 91.776 42.3431H90.276C90.276 50.5682 95.497 57.6873 103.146 61.483L103.813 60.1394ZM104.412 65.1108L104.229 60.7795L102.731 60.8429L102.914 65.1742L104.412 65.1108ZM106.44 66.0362C105.64 66.6725 104.456 66.1321 104.412 65.1108L102.914 65.1742C103.009 67.421 105.614 68.61 107.373 67.21L106.44 66.0362ZM110.647 62.6891L106.44 66.0362L107.373 67.21L111.58 63.8629L110.647 62.6891ZM116.013 62.9362C114.378 62.9362 112.782 62.7986 111.239 62.5366L110.988 64.0154C112.614 64.2915 114.294 64.4362 116.013 64.4362V62.9362Z" fill="#4685FF" mask="url(#path-11-inside-1_196_92)"/>
<mask id="path-13-inside-2_196_92" fill="white">
<path fill-rule="evenodd" clip-rule="evenodd" d="M113.142 63.6862C126.942 63.6862 138.129 54.1305 138.129 42.3431C138.129 30.5556 126.942 21 113.142 21C99.342 21 88.1549 30.5556 88.1549 42.3431C88.1549 50.2291 93.162 57.1161 100.609 60.8112L100.792 65.1425C100.861 66.7765 102.756 67.6413 104.036 66.6231L108.242 63.276C109.827 63.5451 111.465 63.6862 113.142 63.6862Z"/>
</mask>
<path fill-rule="evenodd" clip-rule="evenodd" d="M113.142 63.6862C126.942 63.6862 138.129 54.1305 138.129 42.3431C138.129 30.5556 126.942 21 113.142 21C99.342 21 88.1549 30.5556 88.1549 42.3431C88.1549 50.2291 93.162 57.1161 100.609 60.8112L100.792 65.1425C100.861 66.7765 102.756 67.6413 104.036 66.6231L108.242 63.276C109.827 63.5451 111.465 63.6862 113.142 63.6862Z" fill="#F9FBFF"/>
<path d="M100.609 60.8112L101.358 60.7795L101.339 60.3365L100.942 60.1394L100.609 60.8112ZM100.792 65.1425L100.043 65.1742L100.792 65.1425ZM104.036 66.6231L103.569 66.0362L104.036 66.6231ZM108.242 63.276L108.368 62.5366L108.038 62.4805L107.776 62.6891L108.242 63.276ZM137.379 42.3431C137.379 53.6098 126.643 62.9362 113.142 62.9362V64.4362C127.241 64.4362 138.879 54.6513 138.879 42.3431H137.379ZM113.142 21.75C126.643 21.75 137.379 31.0764 137.379 42.3431H138.879C138.879 30.0349 127.241 20.25 113.142 20.25V21.75ZM88.9049 42.3431C88.9049 31.0764 99.6409 21.75 113.142 21.75V20.25C99.043 20.25 87.4049 30.0349 87.4049 42.3431H88.9049ZM100.942 60.1394C93.6981 56.5449 88.9049 49.8899 88.9049 42.3431H87.4049C87.4049 50.5682 92.626 57.6874 100.275 61.4831L100.942 60.1394ZM101.541 65.1108L101.358 60.7795L99.8595 60.843L100.043 65.1742L101.541 65.1108ZM103.569 66.0362C102.769 66.6725 101.585 66.1321 101.541 65.1108L100.043 65.1742C100.138 67.421 102.743 68.61 104.502 67.21L103.569 66.0362ZM107.776 62.6891L103.569 66.0362L104.502 67.21L108.709 63.8629L107.776 62.6891ZM113.142 62.9362C111.507 62.9362 109.911 62.7986 108.368 62.5366L108.117 64.0154C109.743 64.2915 111.423 64.4362 113.142 64.4362V62.9362Z" fill="#4685FF" mask="url(#path-13-inside-2_196_92)"/>
<path d="M103.681 34.7141L96.0422 42.3527L104.292 49.0747" stroke="#4685FF" stroke-width="3.0991" stroke-linecap="round" stroke-linejoin="round"/>
<path d="M122.319 49.0747L129.958 41.4361L121.708 34.7141" stroke="#4685FF" stroke-width="3.0991" stroke-linecap="round" stroke-linejoin="round"/>
<path d="M115.597 34.4084L109.486 49.0746" stroke="#4685FF" stroke-width="3.0991" stroke-linecap="round" stroke-linejoin="round"/>
</svg>
