<svg width="160" height="160" viewBox="0 0 160 160" fill="none" xmlns="http://www.w3.org/2000/svg">
<path d="M116.241 47.623C101.425 43.7 81.4177 36.1538 81.4177 36.1538H77.9023C72.6177 38.2153 57.6715 44.6769 46.5408 47.623C46.5408 61.6461 42.8946 87.4692 44.8562 100.708C46.9177 114.623 71.4485 118.215 77.9023 124.092H81.4177C88.3946 120.169 115.633 116.2 117.925 100.708C119.887 87.4615 116.241 61.6384 116.241 47.623Z" fill="#4685FF" stroke="#4685FF" stroke-width="0.75" stroke-miterlimit="10"/>
<path d="M112.726 47.623C97.9104 43.7 77.9027 36.1538 77.9027 36.1538C77.9027 36.1538 57.8642 43.7 43.0335 47.623C43.0335 61.6461 39.3873 87.4692 41.3488 100.708C43.6411 116.2 70.9181 120.169 77.9027 124.092C84.8796 120.169 112.118 116.2 114.41 100.708C116.372 87.4615 112.726 61.6384 112.726 47.623Z" fill="#F9FBFF" stroke="#4685FF" stroke-width="0.75" stroke-linecap="round" stroke-linejoin="round"/>
<path d="M106.087 53.2769C94.1021 50.1077 77.9175 44 77.9175 44C77.9175 44 61.7098 50.1077 49.7098 53.2769C49.7098 64.6154 46.7636 85.5077 48.3483 96.2154C50.2021 108.746 72.2636 111.954 77.9175 115.131C83.5636 111.962 105.594 108.754 107.441 96.2154C109.025 85.5077 106.079 64.6154 106.079 53.2769H106.087Z" fill="#4685FF"/>
<path d="M78.4713 56.3384C78.4713 56.3384 78.5405 56.3384 78.5713 56.3384C78.6021 56.3384 78.6405 56.3384 78.6713 56.3384H78.4713Z" fill="#4685FF" stroke="#4685FF" stroke-width="0.75" stroke-miterlimit="10"/>
<path d="M78.5716 56.3384C70.4869 56.3922 64.3254 62.5999 64.3254 69.8538V77.223H92.4946V69.8538C92.4946 62.6076 86.4716 56.3922 78.5716 56.3384ZM88.11 76.323H68.8408V70.6307C68.8408 65.6922 73.0254 61.4615 78.5254 61.3922C78.5254 61.3922 78.5716 61.3922 78.5946 61.3922C78.6177 61.3922 78.6408 61.3922 78.6639 61.3922C84.0331 61.4691 88.1177 65.6999 88.1177 70.6384V76.3307L88.11 76.323Z" fill="#4685FF" stroke="#4685FF" stroke-width="0.75" stroke-miterlimit="10"/>
<path d="M89.1411 75.5537H68.2488C64.2724 75.5537 61.0488 78.7773 61.0488 82.7537V95.8229C61.0488 99.7994 64.2724 103.023 68.2488 103.023H89.1411C93.1176 103.023 96.3411 99.7994 96.3411 95.8229V82.7537C96.3411 78.7773 93.1176 75.5537 89.1411 75.5537Z" fill="#4685FF" stroke="#4685FF" stroke-width="0.75" stroke-miterlimit="10"/>
<path d="M68.8334 89.2923L71.495 86.2154C73.7719 87.4923 75.8334 89.0461 77.5181 91.0923C80.0488 86.7307 83.0488 83.1077 86.4565 80.123L90.5181 82.9692C86.3565 85.2461 80.4181 92.1461 77.8488 96.1692C74.6873 93.0615 71.6488 90.5923 68.8411 89.2923H68.8334Z" fill="#4685FF"/>
<path d="M76.8953 56.3384C76.8953 56.3384 76.9645 56.3384 76.9953 56.3384C77.026 56.3384 77.0645 56.3384 77.0953 56.3384H76.8953Z" fill="#4685FF" stroke="#4685FF" stroke-width="0.75" stroke-miterlimit="10"/>
<path d="M76.9873 56.3384C68.9027 56.3922 62.7411 62.5999 62.7411 69.8538V77.223H90.9103V69.8538C90.9103 62.6076 84.8873 56.3922 76.9873 56.3384ZM86.5257 76.323H67.2565V70.6307C67.2565 65.6922 71.4411 61.4615 76.9411 61.3922C76.9411 61.3922 76.9873 61.3922 77.0104 61.3922C77.0334 61.3922 77.0565 61.3922 77.0796 61.3922C82.4488 61.4691 86.5334 65.6999 86.5334 70.6384V76.3307L86.5257 76.323Z" fill="#F9FBFF" stroke="#4685FF" stroke-width="0.75" stroke-miterlimit="10"/>
<path d="M87.5642 75.5537H66.6719C62.6954 75.5537 59.4719 78.7773 59.4719 82.7537V95.8229C59.4719 99.7994 62.6954 103.023 66.6719 103.023H87.5642C91.5406 103.023 94.7642 99.7994 94.7642 95.8229V82.7537C94.7642 78.7773 91.5406 75.5537 87.5642 75.5537Z" fill="#F9FBFF" stroke="#4685FF" stroke-width="0.75" stroke-miterlimit="10"/>
<path d="M67.2565 89.9383L69.918 86.8614C72.195 88.1383 74.2565 89.6921 75.9411 91.7383C78.4719 87.3767 81.4719 83.7537 84.8796 80.769L88.9411 83.6152C84.7796 85.8921 78.8411 92.7921 76.2719 96.8152C73.1103 93.7075 70.0719 91.2383 67.2642 89.9383H67.2565Z" fill="#4685FF"/>
</svg>
