<svg width="160" height="160" viewBox="0 0 160 160" fill="none" xmlns="http://www.w3.org/2000/svg">
<path d="M64.2018 118.006L95.6049 118.006C97.9109 118.006 99.8783 119.673 100.262 121.945L100.297 122.144C100.391 122.709 99.9586 123.22 99.3868 123.22L60.4225 123.22C59.8507 123.22 59.4144 122.705 59.5122 122.144L59.5485 121.945C59.9322 119.673 61.8996 118.006 64.2055 118.006L64.2018 118.006Z" fill="#B5CEFF" stroke="#4685FF" stroke-width="0.378009" stroke-linecap="round" stroke-linejoin="round"/>
<rect x="20.189" y="36.189" width="119.622" height="75.6095" rx="7.87518" fill="#B5CEFF" stroke="#4685FF" stroke-width="0.378009"/>
<rect x="23.0094" y="38.6333" width="113.981" height="70.721" rx="6.04814" fill="#F9FBFF"/>
<rect x="75.2978" y="111.988" width="7.89969" height="6.01881" fill="#6B9DFF"/>
<path d="M92.7377 41.2664H30.0206C27.8104 41.2664 26.0186 43.1731 26.0186 45.5251V101.71C26.0186 104.062 27.8104 105.969 30.0206 105.969H92.7377C94.9479 105.969 96.7397 104.062 96.7397 101.71V45.5251C96.7397 43.1731 94.9479 41.2664 92.7377 41.2664Z" fill="#B5CEFF"/>
<path d="M130.715 75.8748H104.52C102.301 75.8748 100.501 77.743 100.501 80.0476V102.548C100.501 104.853 102.301 106.721 104.52 106.721H130.715C132.934 106.721 134.733 104.853 134.733 102.548V80.0476C134.733 77.743 132.934 75.8748 130.715 75.8748Z" fill="#B5CEFF"/>
<path d="M107.927 87.8784H106.547C105.959 87.8784 105.482 88.355 105.482 88.943V100.033C105.482 100.621 105.959 101.097 106.547 101.097H107.927C108.515 101.097 108.992 100.621 108.992 100.033V88.943C108.992 88.355 108.515 87.8784 107.927 87.8784Z" fill="#6B9DFF"/>
<path d="M128.869 85.6816H127.488C126.9 85.6816 126.424 86.1583 126.424 86.7462V100.033C126.424 100.621 126.9 101.097 127.488 101.097H128.869C129.457 101.097 129.934 100.621 129.934 100.033V86.7462C129.934 86.1583 129.457 85.6816 128.869 85.6816Z" fill="#6B9DFF"/>
<path d="M115.165 90.5532H113.784C113.197 90.5532 112.72 91.0298 112.72 91.6178V100.033C112.72 100.621 113.197 101.097 113.784 101.097H115.165C115.753 101.097 116.23 100.621 116.23 100.033V91.6178C116.23 91.0298 115.753 90.5532 115.165 90.5532Z" fill="#6B9DFF"/>
<path d="M122.177 81.2163H120.796C120.208 81.2163 119.732 81.6929 119.732 82.2809V100.033C119.732 100.621 120.208 101.097 120.796 101.097H122.177C122.765 101.097 123.241 100.621 123.241 100.033V82.2809C123.241 81.6929 122.765 81.2163 122.177 81.2163Z" fill="#6B9DFF"/>
<path d="M26.0186 100.929V78.0502C26.0186 78.0502 32.2138 68.8051 38.3995 67.9321C44.1387 67.122 46.5019 73.6217 52.2811 73.1785C59.2524 72.6438 59.948 63.484 66.913 62.873C72.7302 62.3627 75.157 68.3403 80.9822 67.9321C88.5259 67.4033 96.7397 56.6897 96.7397 56.6897V100.929C96.7397 103.712 94.4831 105.969 91.6995 105.969H31.0588C28.2752 105.969 26.0186 103.712 26.0186 100.929Z" fill="url(#paint0_linear_196_53)"/>
<path d="M130.715 41.2664H104.52C102.301 41.2664 100.501 43.0941 100.501 45.3488V68.7827C100.501 71.0373 102.301 72.8651 104.52 72.8651H130.715C132.934 72.8651 134.733 71.0373 134.733 68.7827V45.3488C134.733 43.0941 132.934 41.2664 130.715 41.2664Z" fill="#B5CEFF"/>
<path d="M116.278 58.4463V48.1504C113.073 48.1504 110.192 49.6438 108.304 51.9385C108.304 51.9385 108.296 51.946 108.292 51.9498C108.288 51.9573 108.281 51.961 108.277 51.9648C106.844 53.7366 105.983 55.9861 105.983 58.4426C105.983 60.7523 106.742 62.8852 108.029 64.6005C109.906 67.1096 112.9 68.731 116.275 68.731C119.649 68.731 122.553 67.1548 124.434 64.7096L116.275 58.4388L116.278 58.4463Z" fill="#6B9DFF"/>
<path d="M117.889 45.8857V57.2726L126.917 64.2093C128.395 62.287 129.275 59.8832 129.275 57.2726C129.275 50.9829 124.178 45.8857 117.889 45.8857Z" fill="#4685FF"/>
<defs>
<linearGradient id="paint0_linear_196_53" x1="61.3792" y1="56.6897" x2="61.3792" y2="105.969" gradientUnits="userSpaceOnUse">
<stop stop-color="#4685FF"/>
<stop offset="1" stop-color="#4685FF" stop-opacity="0"/>
</linearGradient>
</defs>
</svg>
