<svg width="80" height="80" viewBox="0 0 80 80" fill="none" xmlns="http://www.w3.org/2000/svg">
<path d="M53.5708 25.5822C55.1606 23.8931 57.8546 23.7952 59.2411 25.6548C61.7673 29.0433 63.3695 33.0608 63.8488 37.31C64.486 42.9596 63.0969 48.6519 59.929 53.3729C56.7611 58.0939 52.02 61.537 46.5505 63.0888C41.081 64.6405 35.2382 64.2002 30.063 61.8462C24.8878 59.4922 20.7164 55.3775 18.2918 50.235C15.8672 45.0925 15.347 39.2563 16.8238 33.766C18.3005 28.2758 21.6784 23.4881 26.3556 20.2559C29.8735 17.8248 33.9546 16.3924 38.1689 16.0699C40.4817 15.8929 42.1782 17.9879 41.9498 20.2962V20.2962C41.7214 22.6046 39.6374 24.2326 37.3515 24.6265C35.1343 25.0085 33.0093 25.8684 31.1312 27.1663C28.091 29.2673 25.8953 32.3793 24.9354 35.9479C23.9755 39.5166 24.3137 43.3101 25.8897 46.6527C27.4657 49.9954 30.1771 52.6699 33.541 54.2C36.9048 55.7301 40.7026 56.0163 44.2578 55.0077C47.813 53.9991 50.8947 51.7611 52.9538 48.6924C55.013 45.6238 55.9159 41.9237 55.5017 38.2515C55.2458 35.983 54.4976 33.8161 53.3285 31.8938C52.1232 29.9119 51.981 27.2713 53.5708 25.5822V25.5822Z" fill="#F9FBFF"/>
<rect x="30.3999" y="38" width="4.8" height="11.2" rx="2.4" fill="#F9FBFF"/>
<rect x="44.7998" y="16" width="4.8" height="33.2" rx="2.4" fill="#F9FBFF"/>
<rect x="37.6001" y="30" width="4.8" height="19.2" rx="2.4" fill="#F9FBFF"/>
</svg>
